<?xml version="1.0" encoding="UTF-8"?>
<svg id="icons" xmlns="http://www.w3.org/2000/svg" viewBox="0 0 100 100">
  <defs>
    <style>
      .cls-1 {
        fill: #1a1a1a;
        stroke-width: 0px;
      }
    </style>
  </defs>
  <path class="cls-1" d="M12.7,89.78c-.53,0-1.05-.2-1.45-.58-.57-.55-.79-1.37-.57-2.13l2.99-10c1.08-3.61,2.17-7.22,3.24-10.83-2.81-5.45-4.29-11.52-4.29-17.63,0-21.17,17.23-38.39,38.41-38.39,5.8,0,11.38,1.27,16.6,3.77,13.04,6.24,21.38,19.11,21.77,33.59.02.28.02.66.02,1.03,0,21.17-17.22,38.38-38.38,38.38-6.77,0-12.85-2.2-13.1-2.29-1.62-.58-3.17-1.27-4.72-2.08l-19.8,7.04c-.23.08-.47.12-.71.12ZM51.03,14.44c-18.85,0-34.19,15.33-34.19,34.17,0,5.7,1.45,11.37,4.19,16.4.27.49.33,1.07.17,1.61-1.15,3.9-2.32,7.79-3.49,11.67l-1.79,6.01,16.77-5.96c.55-.19,1.13-.15,1.65.1.08.04.32.18.39.22,1.42.77,2.99,1.48,4.64,2.08.06.02,5.67,2.04,11.66,2.04,18.84,0,34.17-15.33,34.17-34.17,0-.28,0-.55-.02-.83-.35-12.98-7.77-24.43-19.38-29.99-4.64-2.22-9.61-3.35-14.77-3.35Z"/>
  <g>
    <path class="cls-1" d="M48.46,60.06c-1.16,0-2.1-.94-2.11-2.1v-1.6c-.08-1.16.13-2.43.61-3.57.83-2.01,2.45-3.45,3.6-4.36.55-.44,1.11-.83,1.67-1.23,1.27-.9,2.36-1.67,3.14-2.8,1.07-1.55,1.49-3.36,1.17-4.98-.5-2.5-2.65-3.87-3.08-4.12-2.12-1.22-4.89-1.16-7.07.18-2.08,1.29-2.87,3.36-3.11,4.19-.33,1.12-1.5,1.75-2.61,1.44-1.12-.33-1.76-1.5-1.44-2.61.38-1.3,1.62-4.56,4.95-6.61,3.49-2.14,7.96-2.23,11.4-.23.98.57,4.25,2.76,5.09,6.93.55,2.73-.11,5.73-1.83,8.21-1.21,1.74-2.72,2.81-4.18,3.85-.49.35-1,.71-1.48,1.09-1.25.99-1.96,1.82-2.32,2.67-.23.56-.33,1.18-.3,1.82v1.7c.02,1.16-.92,2.12-2.08,2.12h-.01Z"/>
    <path class="cls-1" d="M48.46,67.81c-1.16,0-2.11-.95-2.11-2.11v-.83c0-1.16.95-2.11,2.11-2.11s2.11.95,2.11,2.11v.83c0,1.16-.95,2.11-2.11,2.11Z"/>
  </g>
</svg>