<?xml version="1.0" encoding="UTF-8"?>
<svg id="icons" xmlns="http://www.w3.org/2000/svg" viewBox="0 0 100 100">
  <defs>
    <style>
      .cls-1 {
        fill: #1a1a1a;
        stroke-width: 0px;
      }
    </style>
  </defs>
  <path class="cls-1" d="M75.26,89.78H24.74c-8.01,0-14.52-6.51-14.52-14.52V24.74c0-8.01,6.52-14.52,14.52-14.52h50.52c8.01,0,14.52,6.52,14.52,14.52v50.52c0,8.01-6.51,14.52-14.52,14.52ZM24.74,14.44c-5.68,0-10.3,4.62-10.3,10.3v50.52c0,5.68,4.62,10.3,10.3,10.3h50.52c5.68,0,10.3-4.62,10.3-10.3V24.74c0-5.68-4.62-10.3-10.3-10.3H24.74Z"/>
  <path class="cls-1" d="M38.68,69.39c-.73,0-1.46-.19-2.12-.58-1.33-.77-2.13-2.14-2.13-3.68v-30.27c0-1.54.79-2.91,2.13-3.68,1.33-.77,2.92-.77,4.25,0l26.22,15.14c1.33.77,2.13,2.15,2.13,3.68s-.79,2.91-2.13,3.68l-26.22,15.14c-.67.39-1.39.58-2.13.58ZM38.7,34.84l-.05,30.3,26.27-15.11-26.22-15.19Z"/>
</svg>