<?xml version="1.0" encoding="UTF-8"?>
<svg id="icons" xmlns="http://www.w3.org/2000/svg" viewBox="0 0 100 100">
  <defs>
    <style>
      .cls-1 {
        fill: #1a1a1a;
        stroke-width: 0px;
      }
    </style>
  </defs>
  <path class="cls-1" d="M52.11,52.11h-17.24v-10.23c0-.99-.38-1.91-1.08-2.6-.72-.72-1.64-1.1-2.62-1.1-2.04,0-3.7,1.66-3.7,3.7v10.23H10.22v-30.88c0-6.07,4.94-11.02,11.02-11.02h30.87v13.03h6.01c4.37,0,7.92,3.55,7.92,7.92,0,2.11-.83,4.1-2.33,5.59-1.5,1.5-3.49,2.33-5.59,2.33h-6.01v13.03ZM39.08,47.89h8.81v-13.03h10.23c.98,0,1.91-.39,2.61-1.09.71-.7,1.09-1.63,1.09-2.61,0-2.04-1.66-3.7-3.7-3.7h-10.23v-13.03h-26.65c-3.75,0-6.8,3.05-6.8,6.8v26.66h8.81v-6.01c0-4.37,3.55-7.92,7.92-7.92,2.11,0,4.1.83,5.6,2.32,1.49,1.47,2.32,3.46,2.32,5.6v6.01Z"/>
  <path class="cls-1" d="M68.84,66.04c-2.1,0-4.09-.82-5.59-2.32-1.5-1.47-2.33-3.46-2.33-5.59v-6.01h-13.03v-17.24h10.23c.98,0,1.91-.39,2.61-1.09.71-.7,1.09-1.63,1.09-2.61,0-2.04-1.66-3.7-3.7-3.7h-10.23V10.22h30.88c6.07,0,11.02,4.94,11.02,11.02v30.88h-13.03v6.01c0,4.36-3.55,7.92-7.92,7.92ZM52.11,47.89h13.03v10.23c0,.99.38,1.91,1.08,2.6.72.71,1.64,1.1,2.62,1.1,2.04,0,3.7-1.66,3.7-3.7v-10.23h13.03v-26.66c0-3.75-3.05-6.8-6.8-6.8h-26.66v8.81h6.01c4.37,0,7.92,3.55,7.92,7.92,0,2.11-.83,4.1-2.33,5.59-1.5,1.5-3.49,2.33-5.59,2.33h-6.01v8.81Z"/>
  <path class="cls-1" d="M78.77,89.78h-30.88v-13.03h-6.01c-4.36,0-7.92-3.55-7.92-7.92,0-2.1.82-4.08,2.3-5.58,1.51-1.51,3.5-2.34,5.62-2.34h6.01v-13.03h17.24v10.23c0,.99.38,1.91,1.08,2.6.72.71,1.64,1.1,2.62,1.1,2.04,0,3.7-1.66,3.7-3.7v-10.23h17.24v30.87c0,6.07-4.94,11.02-11.02,11.02ZM52.11,85.56h26.66c3.75,0,6.8-3.05,6.8-6.8v-26.65h-8.81v6.01c0,4.36-3.55,7.92-7.92,7.92-2.1,0-4.09-.82-5.59-2.32-1.5-1.47-2.33-3.46-2.33-5.59v-6.01h-8.81v13.03h-10.23c-.99,0-1.92.39-2.62,1.09-.69.7-1.07,1.63-1.07,2.61,0,2.04,1.66,3.7,3.7,3.7h10.23v13.03Z"/>
  <path class="cls-1" d="M52.11,89.78h-30.87c-6.07,0-11.02-4.94-11.02-11.02v-30.87h13.03v-6.01c0-4.37,3.55-7.92,7.92-7.92,2.11,0,4.1.83,5.6,2.32,1.49,1.47,2.32,3.46,2.32,5.6v6.01h13.03v17.24h-10.23c-.99,0-1.91.39-2.62,1.08-.7.71-1.08,1.64-1.08,2.62,0,2.04,1.66,3.7,3.7,3.7h10.23v17.24ZM14.44,52.11v26.65c0,3.75,3.05,6.8,6.8,6.8h26.65v-8.81h-6.01c-4.36,0-7.92-3.55-7.92-7.92,0-2.1.81-4.08,2.3-5.58h0c1.5-1.51,3.49-2.34,5.61-2.34h6.01v-8.81h-13.03v-10.23c0-.99-.38-1.91-1.08-2.6-.72-.72-1.64-1.1-2.62-1.1-2.04,0-3.7,1.66-3.7,3.7v10.23h-13.03Z"/>
</svg>