<?xml version="1.0" encoding="UTF-8"?>
<svg id="icons" xmlns="http://www.w3.org/2000/svg" viewBox="0 0 100 100">
  <defs>
    <style>
      .cls-1 {
        fill: #1a1a1a;
        stroke-width: 0px;
      }
    </style>
  </defs>
  <path class="cls-1" d="M50,89.78c-21.93,0-39.78-17.85-39.78-39.78S28.07,10.22,50,10.22s39.78,17.85,39.78,39.78-17.85,39.78-39.78,39.78ZM50,14.44c-19.61,0-35.56,15.95-35.56,35.56s15.95,35.56,35.56,35.56,35.56-15.95,35.56-35.56S69.61,14.44,50,14.44Z"/>
  <g>
    <path class="cls-1" d="M50,73.4c-1.16,0-2.11-.95-2.11-2.11V28.71c0-1.16.95-2.11,2.11-2.11s2.11.95,2.11,2.11v42.59c0,1.16-.95,2.11-2.11,2.11Z"/>
    <path class="cls-1" d="M71.3,52.11H28.71c-1.16,0-2.11-.95-2.11-2.11s.95-2.11,2.11-2.11h42.59c1.16,0,2.11.95,2.11,2.11s-.95,2.11-2.11,2.11Z"/>
  </g>
</svg>