<?xml version="1.0" encoding="UTF-8"?>
<svg id="icons" xmlns="http://www.w3.org/2000/svg" viewBox="0 0 100 100">
  <defs>
    <style>
      .cls-1 {
        fill: #1a1a1a;
        stroke-width: 0px;
      }
    </style>
  </defs>
  <path class="cls-1" d="M54.24,81.42c-.9,0-1.73-.58-2.01-1.47-.74-2.32-2.27-5.48-5.4-7.4-2.09-1.3-4.24-1.6-7.01-1.67-6.62-.24-13.98.92-21.49,3.29-.58.18-1.22.11-1.74-.21-.52-.32-.88-.85-.98-1.45L7.68,24.6c-.16-.98.37-1.93,1.29-2.3,5.79-2.35,14.39-5.29,22.46-5.9,4.78-.36,8.36.2,11.57,1.85,1.63.85,2.85,1.81,3.59,2.47.37.32.61.76.68,1.24l9.06,57.03c.17,1.09-.52,2.13-1.6,2.39-.16.04-.33.06-.49.06ZM38.12,66.63c.61,0,1.22,0,1.83.03,2.71.07,5.89.31,9.1,2.3.57.35,1.1.73,1.6,1.13l-7.42-46.7c-.55-.43-1.27-.94-2.16-1.4-1.66-.85-4.25-1.79-9.31-1.39-5.48.42-12.4,2.18-19.63,4.98l7.26,43.87c6.55-1.87,12.83-2.81,18.74-2.81Z"/>
  <path class="cls-1" d="M12.79,89.21c-.05,0-.11,0-.16,0-.97-.08-1.76-.81-1.92-1.77L1.87,32.73c-.09-.55.04-1.11.37-1.56l5.8-8.15c.49-.7,1.36-1.02,2.19-.83.83.19,1.47.87,1.61,1.71l7.93,47.91c.06.33.03.68-.08,1l-4.9,14.94c-.29.87-1.1,1.45-2,1.45ZM6.18,32.91l7.31,45.29,2.04-6.21-7.01-42.36-2.34,3.28Z"/>
  <path class="cls-1" d="M12.79,89.21c-.6,0-1.18-.26-1.59-.72-.49-.56-.65-1.34-.42-2.05l4.9-14.94c.21-.64.72-1.15,1.37-1.35,8.08-2.55,15.77-3.71,22.89-3.49,2.71.07,5.89.31,9.1,2.3,4.22,2.59,6.25,6.71,7.21,9.71.18.57.11,1.2-.2,1.72-.31.52-.83.88-1.42.99l-41.46,7.79c-.13.02-.26.04-.39.04ZM19.35,73.85l-3.45,10.52,35.43-6.66c-.9-1.85-2.31-3.81-4.51-5.16-2.09-1.3-4.24-1.6-7.01-1.67-6.3-.22-13.31.81-20.46,2.97Z"/>
  <path class="cls-1" d="M54.24,81.42c-1.03,0-1.91-.74-2.08-1.78l-9.06-57.03c-.08-.48.02-.98.26-1.4.49-.84,1.3-2.12,2.57-3.42,2.5-2.56,5.71-4.21,10.44-5.37,7.86-1.92,16.95-1.81,23.18-1.36.98.07,1.79.81,1.94,1.78l7.34,48c.09.61-.08,1.22-.48,1.69-.4.46-.97.73-1.59.74-7.98.07-15.19,1.27-21.44,3.54-2.63.94-4.57,1.89-6.16,3.77-2.54,2.98-2.85,6.73-2.82,8.69.02,1.11-.82,2.04-1.92,2.14-.06,0-.13,0-.19,0ZM47.39,22.72l7.42,46.68c.34-.52.72-1.04,1.15-1.55,2.43-2.88,5.38-4.1,7.95-5.01,6.04-2.2,12.89-3.45,20.4-3.73l-6.72-43.95c-7.74-.43-14.86.05-20.2,1.35-3.97.97-6.49,2.23-8.42,4.21-.68.7-1.19,1.41-1.57,1.99Z"/>
  <path class="cls-1" d="M96.05,75.96c-.66,0-1.3-.31-1.7-.86l-9.3-12.68c-.2-.27-.33-.59-.39-.93l-7.34-48c-.13-.84.26-1.68,1-2.13.73-.44,1.65-.4,2.34.11l8.05,5.94c.45.33.74.82.83,1.37l8.59,54.75c.15.96-.38,1.9-1.27,2.27-.26.11-.54.16-.81.16ZM88.75,60.34l3.87,5.27-7.12-45.32-3.24-2.39,6.49,42.44Z"/>
  <path class="cls-1" d="M54.24,81.42c-.5,0-.99-.18-1.38-.51-.45-.39-.72-.96-.73-1.56-.05-2.56.39-7.47,3.82-11.5,2.43-2.88,5.38-4.1,7.95-5.01,6.68-2.43,14.37-3.71,22.82-3.79.62,0,1.32.31,1.72.86l9.3,12.68c.44.6.53,1.39.24,2.08s-.93,1.16-1.66,1.26l-41.8,5.46c-.09,0-.18.02-.27.02ZM85.69,63.29c-7.55.17-14.39,1.35-20.36,3.52-2.63.94-4.57,1.89-6.16,3.77-1.71,2.02-2.42,4.38-2.68,6.31l35.74-4.67-6.55-8.93Z"/>
</svg>