<?xml version="1.0" encoding="UTF-8"?>
<svg id="icons" xmlns="http://www.w3.org/2000/svg" viewBox="0 0 100 100">
  <defs>
    <style>
      .cls-1 {
        fill: #1a1a1a;
        stroke-width: 0px;
      }
    </style>
  </defs>
  <path class="cls-1" d="M42.5,72.17c-17.08,0-30.98-13.9-30.98-30.98s13.9-30.98,30.98-30.98,30.98,13.9,30.98,30.98-13.9,30.98-30.98,30.98ZM42.5,14.43c-14.76,0-26.76,12-26.76,26.76s12,26.76,26.76,26.76,26.76-12,26.76-26.76-12-26.76-26.76-26.76Z"/>
  <path class="cls-1" d="M86.37,89.78c-.54,0-1.08-.2-1.49-.62l-24.81-24.81c-.82-.82-.82-2.16,0-2.99.82-.82,2.16-.82,2.99,0l24.81,24.81c.82.82.82,2.16,0,2.99-.41.41-.95.62-1.49.62Z"/>
</svg>