<?xml version="1.0" encoding="UTF-8"?>
<svg id="icons" xmlns="http://www.w3.org/2000/svg" viewBox="0 0 100 100">
  <defs>
    <style>
      .cls-1 {
        fill: #1a1a1a;
        stroke-width: 0px;
      }
    </style>
  </defs>
  <path class="cls-1" d="M50,69.36c-10.68,0-19.36-8.69-19.36-19.36s8.69-19.36,19.36-19.36,19.36,8.69,19.36,19.36-8.69,19.36-19.36,19.36ZM50,34.86c-8.35,0-15.14,6.79-15.14,15.14s6.79,15.14,15.14,15.14,15.14-6.79,15.14-15.14-6.79-15.14-15.14-15.14Z"/>
  <path class="cls-1" d="M57.72,93.97h-15.44l-1.7-9.98c-2.78-.77-5.44-1.88-7.94-3.3l-8.27,5.86-10.91-10.91,5.86-8.27c-1.42-2.5-2.53-5.17-3.3-7.94l-9.98-1.7v-15.44l9.98-1.7c.77-2.78,1.88-5.44,3.3-7.94l-5.86-8.27,10.91-10.91,8.27,5.86c2.5-1.42,5.17-2.53,7.94-3.3l1.7-9.98h15.44l1.7,9.98c2.78.77,5.44,1.88,7.94,3.3l8.27-5.86,10.91,10.92-5.86,8.27c1.42,2.5,2.53,5.17,3.3,7.94l9.98,1.7v15.44l-9.98,1.7c-.77,2.78-1.88,5.44-3.3,7.94l5.86,8.27-10.91,10.91-8.27-5.86c-2.5,1.42-5.17,2.53-7.94,3.3l-1.7,9.98ZM45.84,89.75h8.32l1.57-9.2,1.36-.32c3.28-.77,6.39-2.07,9.26-3.85l1.19-.74,7.62,5.41,5.88-5.88-5.41-7.62.74-1.19c1.78-2.87,3.08-5.99,3.85-9.26l.32-1.36,9.2-1.57v-8.32l-9.2-1.57-.32-1.36c-.77-3.28-2.07-6.39-3.85-9.26l-.74-1.19,5.41-7.62-5.88-5.88-7.62,5.41-1.19-.74c-2.87-1.78-5.99-3.08-9.26-3.85l-1.36-.32-1.57-9.2h-8.32l-1.57,9.2-1.36.32c-3.28.77-6.39,2.07-9.26,3.85l-1.19.74-7.62-5.41-5.88,5.88,5.41,7.62-.74,1.19c-1.78,2.87-3.08,5.99-3.85,9.26l-.32,1.36-9.2,1.57v8.32l9.2,1.57.32,1.36c.77,3.28,2.07,6.39,3.85,9.26l.74,1.19-5.41,7.62,5.88,5.88,7.62-5.41,1.19.74c2.87,1.78,5.99,3.08,9.26,3.85l1.36.32,1.57,9.2Z"/>
</svg>