<?xml version="1.0" encoding="UTF-8"?>
<svg id="icons" xmlns="http://www.w3.org/2000/svg" viewBox="0 0 100 100">
  <defs>
    <style>
      .cls-1 {
        fill: #1a1a1a;
        stroke-width: 0px;
      }
    </style>
  </defs>
  <g>
    <path class="cls-1" d="M39.51,51.85c-.54,0-1.08-.21-1.49-.62L14.26,27.48c-.82-.82-.82-2.16,0-2.99l10.25-10.25c.82-.82,2.16-.82,2.99,0l24.06,24.06c.41.41.63.97.62,1.55-.02.58-.27,1.12-.7,1.51-3.22,2.91-6.75,6.24-10.49,9.89-.41.4-.94.6-1.47.6ZM18.73,25.99l20.8,20.79c2.61-2.52,5.11-4.88,7.47-7.05l-21.01-21.01-7.26,7.26Z"/>
    <path class="cls-1" d="M70.87,83.22c-.54,0-1.08-.2-1.49-.62l-20.84-20.84c-.81-.82-.82-2.14-.02-2.97,3.37-3.45,6.7-6.98,9.89-10.5.39-.43.93-.68,1.51-.69.6.03,1.13.21,1.54.62l21.15,21.15c.82.82.82,2.16,0,2.99l-10.25,10.25c-.41.41-.95.62-1.49.62ZM52.99,60.24l17.88,17.88,7.26-7.26-18.09-18.09c-2.3,2.5-4.66,5.01-7.05,7.48Z"/>
    <path class="cls-1" d="M76.99,89.35c-.54,0-1.08-.2-1.49-.62l-6.12-6.12c-.82-.82-.82-2.16,0-2.99l10.24-10.24c.82-.82,2.16-.82,2.99,0l6.12,6.12c.82.82.82,2.16,0,2.99l-10.24,10.24c-.41.41-.95.62-1.49.62ZM73.85,81.11l3.14,3.14,7.26-7.26-3.14-3.14-7.26,7.26Z"/>
    <path class="cls-1" d="M83.93,94.3c-1.77,0-3.53-.67-4.88-2.02l-3.55-3.55c-.82-.82-.82-2.16,0-2.99l10.24-10.24c.82-.82,2.16-.82,2.99,0l3.55,3.55c2.69,2.69,2.69,7.07,0,9.76l-3.47,3.47c-1.35,1.34-3.11,2.02-4.88,2.02ZM79.98,87.24l2.06,2.06c1.04,1.05,2.75,1.05,3.79,0l3.47-3.47c1.05-1.04,1.05-2.75,0-3.79l-2.06-2.06-7.26,7.26Z"/>
    <path class="cls-1" d="M15.75,28.1c-.13,0-.26-.01-.39-.04-.69-.13-1.26-.59-1.54-1.23L5.88,8.66c-.35-.79-.17-1.72.44-2.34.62-.61,1.55-.79,2.34-.44l18.18,7.93c.64.28,1.1.86,1.23,1.54s-.09,1.39-.58,1.89l-10.24,10.24c-.4.4-.94.62-1.49.62ZM11.9,11.9l4.55,10.42,5.87-5.87-10.42-4.55Z"/>
  </g>
  <g>
    <path class="cls-1" d="M75.47,36.17c-1.27,0-2.47-.19-3.58-.56-.31-.11-.59-.28-.83-.51l-6.38-6.41c-.25-.25-.43-.55-.53-.89-.33-1.14-.5-2.3-.5-3.44,0-4.53,2.63-8.71,6.71-10.66,2.42-1.17,4.89-1.26,7.28-1.36,1.98-.08,3.86-.15,5.5-.85,2.67-1.16,4.42-2.87,5.42-4.1.57-.71,1.54-.96,2.39-.64.85.32,1.4,1.16,1.36,2.06-.12,2.74-.51,5.53-1.16,8.31-3.74,15.75-10.6,19.06-15.68,19.06ZM73.67,31.74c.56.14,1.16.21,1.8.21,6.46,0,9.86-8.6,11.58-15.81.17-.74.33-1.48.46-2.23-.8.52-1.69,1.01-2.69,1.44-2.37,1.02-4.73,1.11-7.01,1.2-2.05.08-3.99.16-5.63.95-2.62,1.25-4.31,3.94-4.31,6.86,0,.58.07,1.17.2,1.76l5.6,5.63Z"/>
    <path class="cls-1" d="M14.57,92.75h-.01c-.81,0-1.54-.31-2.06-.85l-4.66-4.65c-.5-.48-.81-1.21-.81-2.02-.04-6.31,25.82-31.92,31-37,3.78-3.68,7.35-7.05,10.61-10,5.48-4.98,12.83-11.27,16.69-12.97.8-.35,1.73-.18,2.35.44l6.38,6.41c.61.62.78,1.55.43,2.34-1.36,3.07-5.72,8.67-12.95,16.66-3.23,3.56-6.6,7.13-10,10.61-5.07,5.18-30.63,31.02-36.96,31.02ZM15.47,88.91l.05.04s-.03-.03-.05-.04ZM11.37,84.81l3.6,3.6c3.63-1.38,17.4-13.1,33.54-29.62,3.37-3.45,6.7-6.98,9.89-10.5,7.25-8.01,10.29-12.18,11.56-14.3l-4.18-4.2c-2.93,1.75-8.01,5.85-14.31,11.58-3.23,2.92-6.76,6.25-10.49,9.89-16.51,16.15-28.23,29.93-29.61,33.56ZM10.79,84.23l.05.05-.05-.05Z"/>
  </g>
</svg>