<?xml version="1.0" encoding="UTF-8"?>
<svg id="icons" xmlns="http://www.w3.org/2000/svg" viewBox="0 0 100 100">
  <defs>
    <style>
      .cls-1 {
        fill: #1a1a1a;
        stroke-width: 0px;
      }
    </style>
  </defs>
  <path class="cls-1" d="M41.95,56.21c-.26,0-.52-.05-.76-.15-.85-.33-1.39-1.17-1.34-2.08.09-1.7.31-3.27.67-4.81,1.83-7.56,5.09-11.39,9.7-11.39.77,0,1.54.12,2.26.35.32.1.62.28.86.52l3.57,3.58c.23.23.4.51.5.82.24.71.36,1.48.36,2.27,0,2.88-1.68,5.55-4.29,6.8-1.53.73-3.07.79-4.42.85-1.08.05-2.01.08-2.78.42-1.04.45-1.98,1.15-2.71,2.03-.41.5-1.01.77-1.63.77ZM50.22,42.01c-2.81,0-4.49,3.9-5.42,7.45,1.42-.57,2.83-.63,4.09-.68,1.09-.04,2.04-.08,2.78-.44,1.13-.54,1.89-1.75,1.89-3,0-.18-.01-.36-.04-.53l-2.75-2.76c-.18-.03-.36-.04-.54-.04Z"/>
  <path class="cls-1" d="M55.41,45.84c-.55,0-1.09-.21-1.5-.62l-3.57-3.58c-.61-.62-.78-1.55-.43-2.35,2-4.5,14.23-17.09,21.87-24.18,11.01-10.18,12.84-9.89,14.37-8.29l2.6,2.6c1.77,1.7,1.07,4.11-7.84,13.82-7.45,8.12-20.17,20.43-24.66,22.41-.27.12-.57.18-.85.18ZM54.47,39.8l1.3,1.3c4.21-2.81,14.12-12.07,22.04-20.71h0c4.85-5.28,6.57-7.76,7.17-8.78l-1.04-1.04c-1.05.62-3.65,2.42-9.29,7.64-8.57,7.96-17.44,17.49-20.18,21.59ZM85.75,12.39s.04.04.06.06l-.06-.06ZM83.15,9.78l.05.05-.05-.05Z"/>
  <path class="cls-1" d="M50.07,94.01c-11.55,0-22.75-4.69-30.91-12.99-8.46-8.6-12.99-20.39-12.44-32.37.41-6.71,5.15-12.12,11.55-13.4l17.36-3.45c1.53-.3,2.68-1.61,2.78-3.18l.62-10.15c.41-6.4,5.84-11.32,12.15-11.09h.32c8.25.29,16.14,2.9,22.9,7.53.53.36.86.95.91,1.59.05.64-.2,1.27-.67,1.7-8.57,7.96-17.45,17.5-20.18,21.59l1.3,1.3c4.21-2.81,14.12-12.07,22.04-20.71.39-.43.94-.67,1.52-.68.63-.03,1.13.22,1.54.63,7.67,7.78,12.08,18.06,12.43,28.95.37,11.62-3.81,22.67-11.77,31.11-7.93,8.4-18.64,13.23-30.17,13.59h0c-.43.01-.86.02-1.28.02ZM51.29,91.88h.03-.03ZM50.89,11.61c-4.07,0-7.38,3.09-7.64,7.14l-.62,10.15c-.23,3.49-2.77,6.38-6.17,7.05l-17.36,3.45c-4.52.9-7.87,4.72-8.15,9.27-.52,10.99,3.58,21.64,11.21,29.4,7.64,7.77,18.18,12.06,29.06,11.71,10.4-.32,20.07-4.68,27.22-12.26,7.19-7.62,10.96-17.59,10.62-28.08-.28-9.09-3.71-17.71-9.71-24.51-7.55,8.04-18.92,18.89-23.11,20.74-.8.36-1.73.18-2.35-.44l-3.57-3.58c-.61-.62-.78-1.55-.43-2.35,1.83-4.13,12.27-15.06,19.89-22.31-5.58-3.3-11.88-5.14-18.37-5.38h-.31c-.08,0-.15,0-.23,0Z"/>
  <path class="cls-1" d="M26.21,60.59c-4.37,0-7.98-3.5-8.08-7.89-.05-2.16.74-4.21,2.23-5.77,1.49-1.56,3.5-2.45,5.66-2.5,4.55-.08,8.16,3.43,8.27,7.89.11,4.46-3.43,8.17-7.89,8.28h-.19ZM26.22,48.64s-.06,0-.1,0c-1.03.02-1.99.45-2.71,1.2-.72.74-1.09,1.73-1.07,2.76.05,2.13,1.76,3.73,3.96,3.77,1.03-.02,1.99-.45,2.71-1.2.72-.75,1.09-1.73,1.07-2.76-.05-2.1-1.77-3.77-3.86-3.77Z"/>
  <path class="cls-1" d="M39.2,80.94c-2.09,0-4.06-.79-5.58-2.23-1.56-1.49-2.45-3.5-2.5-5.66-.05-2.16.74-4.21,2.23-5.77s3.5-2.45,5.66-2.5c2.04-.04,4.21.74,5.77,2.23,1.56,1.49,2.45,3.5,2.5,5.66h0c.1,4.46-3.44,8.17-7.89,8.28h-.19ZM39.21,68.99s-.06,0-.1,0c-1.03.02-1.99.45-2.71,1.19-.71.75-1.09,1.73-1.06,2.76.02,1.03.45,1.99,1.19,2.71.75.71,1.69,1.06,2.76,1.07,2.13-.05,3.82-1.83,3.77-3.96-.05-2.1-1.77-3.77-3.86-3.77Z"/>
  <path class="cls-1" d="M62.38,80.4c-2.08,0-4.05-.79-5.57-2.23-1.56-1.49-2.45-3.5-2.5-5.66-.05-2.16.74-4.21,2.23-5.77s3.5-2.45,5.66-2.5c4.34-.12,8.17,3.44,8.28,7.89h0c.05,2.16-.74,4.21-2.23,5.77s-3.5,2.45-5.66,2.5c-.07,0-.13,0-.2,0ZM62.38,68.44h-.09c-2.13.05-3.82,1.83-3.77,3.96.02,1.03.45,1.99,1.19,2.71.75.71,1.58,1.01,2.76,1.06,1.03-.02,1.99-.45,2.71-1.19.71-.75,1.09-1.73,1.07-2.76-.05-2.1-1.78-3.77-3.87-3.77Z"/>
  <path class="cls-1" d="M73.79,60.09c-4.37,0-7.98-3.5-8.09-7.89-.05-2.16.74-4.21,2.23-5.77s3.5-2.45,5.66-2.5c2,0,4.21.74,5.77,2.23,1.56,1.49,2.45,3.5,2.5,5.66s-.74,4.21-2.23,5.77-3.5,2.45-5.66,2.5h-.19ZM73.79,48.14s-.06,0-.1,0c-1.03.02-1.99.45-2.71,1.19-.71.75-1.09,1.73-1.07,2.76.05,2.13,1.75,3.82,3.96,3.77,2.13-.05,3.82-1.83,3.77-3.96h0c-.02-1.03-.45-1.99-1.19-2.71-.73-.69-1.67-1.07-2.67-1.07Z"/>
</svg>