<?xml version="1.0" encoding="UTF-8"?>
<svg id="icons" xmlns="http://www.w3.org/2000/svg" viewBox="0 0 100 100">
  <defs>
    <style>
      .cls-1 {
        fill: #1a1a1a;
        stroke-width: 0px;
      }
    </style>
  </defs>
  <g>
    <polygon class="cls-1" points="41.15 80.8 36.92 80.77 41.16 80.56 41.15 80.8"/>
    <polygon class="cls-1" points="63.08 80.82 58.86 80.81 63.07 80.48 63.08 80.82"/>
    <path class="cls-1" d="M57.17,86.75h-14.33c-3.26,0-5.91-2.65-5.91-5.91l.02-.52c.12-1.37.73-2.68,1.71-3.66,1.1-1.11,2.59-1.73,4.17-1.73h14.33c3.08,0,5.67,2.4,5.89,5.46l.02.44c0,1.58-.62,3.07-1.73,4.18-1.11,1.11-2.6,1.73-4.18,1.73ZM42.83,79.15c-.45,0-.87.17-1.19.49-.29.29-.46.66-.49,1.05,0,1.08.75,1.85,1.68,1.85h14.33c.45,0,.87-.17,1.19-.49s.5-.75.5-1.2v-.03h2.11l-2.11-.03c-.07-.95-.81-1.63-1.69-1.63h-14.33Z"/>
    <path class="cls-1" d="M57.68,93.97h-15.37c-2.66,0-4.82-2.16-4.82-4.82v-1.8c0-2.66,2.16-4.82,4.82-4.82h15.37c2.66,0,4.82,2.16,4.82,4.82v1.8c0,2.66-2.16,4.82-4.82,4.82ZM42.32,86.75c-.33,0-.6.27-.6.6v1.8c0,.33.27.6.6.6h15.37c.33,0,.6-.27.6-.6v-1.8c0-.33-.27-.6-.6-.6h-15.37Z"/>
    <path class="cls-1" d="M58.85,80.71c-.07-.87-.8-1.56-1.68-1.56h-14.33c-.45,0-.87.17-1.19.49-.29.29-.46.66-.49,1.05l-4.21-.27c.01-.37.02-.81,0-1.33-.12-3.38-1.29-6.47-3.3-8.69-.66-.73-1.38-1.42-2.1-2.11-.63-.6-1.26-1.21-1.87-1.84-1.37-1.44-2.55-3.14-3.6-5.19-1.92-3.75-2.93-7.97-2.93-12.21,0-14.81,12.05-26.86,26.86-26.86s26.85,12.05,26.85,26.86c0,3.72-.79,7.48-2.28,10.85-1.1,2.5-2.77,4.94-5.09,7.48-.57.62-1.17,1.22-1.77,1.82l-.66.66c-1.16,1.18-2.07,2.2-2.72,3.37-1.02,1.85-1.22,4.11-1.28,5.86-.02.54-.01,1.01,0,1.37l-4.21.24ZM50,26.41c-12.48,0-22.64,10.15-22.64,22.64,0,3.58.85,7.14,2.47,10.29.86,1.68,1.81,3.05,2.9,4.2.56.58,1.14,1.14,1.72,1.7.79.76,1.59,1.52,2.32,2.33,1.91,2.13,3.25,4.8,3.92,7.75.67-.26,1.39-.4,2.14-.4h14.33c.72,0,1.41.13,2.05.37.26-1.35.69-2.77,1.43-4.11.93-1.68,2.19-3.06,3.4-4.29l.68-.68c.55-.55,1.11-1.11,1.63-1.68,2.01-2.2,3.43-4.27,4.34-6.34,1.26-2.84,1.92-6,1.92-9.14,0-12.48-10.15-22.64-22.63-22.64Z"/>
  </g>
  <g>
    <g id="_Radial_Repeat_" data-name="&amp;lt;Radial Repeat&amp;gt;">
      <path class="cls-1" d="M5.94,60.05c-1,0-1.89-.72-2.07-1.74-.2-1.15.56-2.24,1.71-2.44l9.36-1.65c1.14-.21,2.24.56,2.44,1.71s-.56,2.24-1.71,2.44l-9.36,1.65c-.12.02-.25.03-.37.03Z"/>
    </g>
    <g id="_Radial_Repeat_-2" data-name="&amp;lt;Radial Repeat&amp;gt;">
      <path class="cls-1" d="M19.49,34.67c-.36,0-.72-.09-1.05-.28l-8.23-4.75c-1.01-.58-1.35-1.87-.77-2.88.58-1.01,1.86-1.36,2.88-.77l8.23,4.75c1.01.58,1.35,1.87.77,2.88-.39.68-1.1,1.05-1.83,1.05Z"/>
    </g>
    <g id="_Radial_Repeat_-3" data-name="&amp;lt;Radial Repeat&amp;gt;">
      <path class="cls-1" d="M37.95,19.18c-.86,0-1.67-.53-1.98-1.39l-3.25-8.93c-.4-1.09.16-2.31,1.26-2.7,1.09-.4,2.31.16,2.7,1.26l3.25,8.93c.4,1.09-.16,2.31-1.26,2.7-.24.09-.48.13-.72.13Z"/>
    </g>
    <g id="_Radial_Repeat_-4" data-name="&amp;lt;Radial Repeat&amp;gt;">
      <path class="cls-1" d="M62.05,19.18c-.24,0-.48-.04-.72-.13-1.09-.4-1.66-1.61-1.26-2.7l3.25-8.93c.4-1.1,1.62-1.66,2.7-1.26,1.09.4,1.66,1.61,1.26,2.7l-3.25,8.93c-.31.86-1.12,1.39-1.98,1.39Z"/>
    </g>
    <g id="_Radial_Repeat_-5" data-name="&amp;lt;Radial Repeat&amp;gt;">
      <path class="cls-1" d="M80.51,34.67c-.73,0-1.44-.38-1.83-1.05-.58-1.01-.24-2.3.77-2.88l8.23-4.75c1.02-.58,2.3-.23,2.88.77.58,1.01.24,2.3-.77,2.88l-8.23,4.75c-.33.19-.7.28-1.05.28Z"/>
    </g>
    <g id="_Radial_Repeat_-6" data-name="&amp;lt;Radial Repeat&amp;gt;">
      <path class="cls-1" d="M94.06,60.05c-.12,0-.25,0-.37-.03l-9.36-1.65c-1.15-.2-1.91-1.3-1.71-2.44s1.32-1.92,2.44-1.71l9.36,1.65c1.15.2,1.91,1.3,1.71,2.44-.18,1.03-1.07,1.74-2.07,1.74Z"/>
    </g>
  </g>
</svg>