<?xml version="1.0" encoding="UTF-8"?>
<svg id="icons" xmlns="http://www.w3.org/2000/svg" viewBox="0 0 100 100">
  <defs>
    <style>
      .cls-1 {
        fill: #1a1a1a;
        stroke-width: 0px;
      }
    </style>
  </defs>
  <path class="cls-1" d="M81.95,60.93c-.91,0-1.87-.11-2.89-.33-7.47-1.62-16.48-8.68-21.41-16.8-4.9-8.06-7.04-19.19-5.09-26.48.79-2.97,2.27-5.13,4.28-6.23h0c7.46-4.09,20.5,6.85,26.57,16.5,6.14,9.77,10.44,27.11,3.19,32.03-1.27.86-2.85,1.3-4.66,1.3ZM60.56,14.41c-.64,0-1.21.13-1.68.39h0c-1.23.68-1.9,2.34-2.23,3.62-1.65,6.18.33,16.15,4.62,23.19,4.92,8.09,13.31,13.7,18.7,14.87,1.89.41,3.36.29,4.28-.33,3.97-2.7,1.63-16.71-4.39-26.3-5.23-8.32-14.41-15.44-19.28-15.44Z"/>
  <path class="cls-1" d="M32.34,76.61c-1.35,0-2.69-.47-3.79-1.38-3.17-2.62-5.82-5.74-7.87-9.28-2.53-4.36-4.06-9.16-4.53-14.25-.22-2.37.98-4.63,3.05-5.75,1.69-.91,3.71-2.05,5.96-3.42,5.87-3.57,9.73-5.91,13.81-9.66,3.42-3.14,6.02-6.58,11.19-13.42,2.25-2.98,3.99-5.44,5.18-7.14l3.46,2.41c-1.21,1.74-2.98,4.24-5.21,7.19-5.4,7.14-8.07,10.67-11.77,14.07-4.39,4.03-8.39,6.46-14.45,10.15-2.34,1.42-4.43,2.6-6.16,3.54-.59.32-.93.97-.86,1.65.42,4.48,1.76,8.69,3.98,12.52,1.8,3.1,4.13,5.85,6.91,8.15.57.47,1.33.54,1.95.18,3.6-2.1,7.35-4.07,11.15-5.85,8.05-3.77,14.38-6.73,23.08-8.15,6.24-1.02,14.86-1.45,15.23-1.46l.2,4.21c-.09,0-8.75.44-14.75,1.42-8.12,1.32-13.92,4.04-21.94,7.79-3.71,1.74-7.35,3.65-10.84,5.69-.93.54-1.96.81-2.98.81Z"/>
  <path class="cls-1" d="M22.12,76.29c-4.24,0-8.34-1.92-10.65-5.46-1.89-2.89-2.37-6.62-1.33-10.22,1.11-3.86,3.86-7.04,7.53-8.73l1.76,3.84c-2.55,1.17-4.46,3.38-5.24,6.06-.7,2.42-.4,4.88.81,6.74,2.2,3.37,7.68,4.99,12.34,2.04l2.26,3.56c-2.3,1.47-4.92,2.17-7.48,2.17Z"/>
  <path class="cls-1" d="M61.43,89.78c-2.28,0-4.65-.87-6.52-2.56l-16.9-14.48,2.74-3.2,16.95,14.52c2.05,1.86,4.81,1.85,6.13.7.74-.65,1.17-1.78,1.15-3.03-.03-1.59-.78-3.1-2.06-4.14-7.21-5.44-13.53-12-18.72-19.43-4.2-6-7.62-12.52-10.18-19.39l3.96-1.47c2.43,6.53,5.69,12.74,9.68,18.44,4.95,7.07,10.96,13.31,17.87,18.53,2.31,1.87,3.63,4.55,3.68,7.39.04,2.51-.9,4.81-2.6,6.28-1.42,1.24-3.26,1.85-5.17,1.85Z"/>
  <path class="cls-1" d="M67.78,52.62l-2.74-3.2c3.28-2.81,4.44-7.34,2.83-11.02-1.92-4.37-7.38-6.55-12.19-4.86l-1.4-3.98c6.97-2.45,14.62.7,17.45,7.15,2.35,5.37.73,11.91-3.95,15.92Z"/>
</svg>