<?xml version="1.0" encoding="UTF-8"?>
<svg id="icons" xmlns="http://www.w3.org/2000/svg" viewBox="0 0 100 100">
  <defs>
    <style>
      .cls-1 {
        fill: #1a1a1a;
        stroke-width: 0px;
      }
    </style>
  </defs>
  <path class="cls-1" d="M86.94,84.85H13.06c-3.88,0-7.03-3.15-7.03-7.03V22.47c0-4.04,3.63-7.33,8.08-7.33h22.06c3.5,0,6.8,1.69,8.83,4.53l.31.44c.54.75,1.07,1.5,1.6,2.26.47.64.96,1.32,1.45,2.01,1.49,2.06,2.99,4.16,4.49,6.26h32.55c4.73,0,8.58,3.85,8.58,8.58v38.6c0,3.88-3.15,7.03-7.03,7.03ZM14.11,19.37c-2.13,0-3.86,1.39-3.86,3.11v55.35c0,1.55,1.26,2.81,2.81,2.81h73.88c1.55,0,2.81-1.26,2.81-2.81v-38.6c0-2.41-1.95-4.36-4.36-4.36h-34.72l-.63-.88c-1.7-2.39-3.41-4.78-5.12-7.15-.48-.69-.95-1.34-1.45-2.01-.54-.79-1.07-1.52-1.59-2.25l-.32-.44c-1.23-1.73-3.25-2.76-5.39-2.76H14.11Z"/>
  <path class="cls-1" d="M93.97,39.22h-4.22c0-2.41-1.95-4.36-4.36-4.36h-34.72l-.63-.88c-1.7-2.39-3.41-4.78-5.12-7.15-.48-.69-.95-1.34-1.45-2.01l-2.49-3.36h42.67c5.69,0,10.31,5.46,10.31,12.18v5.58ZM52.84,30.64h32.55c1.52,0,2.95.4,4.18,1.09-.66-3.47-3.06-6.05-5.92-6.05h-34.37c1.18,1.64,2.37,3.3,3.56,4.96Z"/>
</svg>