<?xml version="1.0" encoding="utf-8"?>
<!-- Generator: Adobe Illustrator 26.3.1, SVG Export Plug-In . SVG Version: 6.00 Build 0)  -->
<svg version="1.1" id="Layer_1" xmlns="http://www.w3.org/2000/svg" xmlns:xlink="http://www.w3.org/1999/xlink" x="0px" y="0px"
	 viewBox="0 0 32 32" style="enable-background:new 0 0 32 32;" xml:space="preserve">
<style type="text/css">
	.st0{fill:#FFFFFF;stroke:#FFFFFF;stroke-width:0.25;stroke-miterlimit:10;}
</style>
<path d="M24.2,32H7.8C3.5,32,0,28.5,0,24.2V7.8C0,3.5,3.5,0,7.8,0h16.3C28.5,0,32,3.5,32,7.8v16.3C32,28.5,28.5,32,24.2,32z"/>
<path class="st0" d="M18.2,27.7c-0.3,0-0.6,0-1.1-0.1c-1.7-0.4-2.7-1.6-2.9-2c-0.3-0.4-0.6-1.1-0.8-1.9c0-0.2-0.1-0.8,0-1.4
	c0-0.2,0.1-0.5,0.1-0.5c0-0.1,0.1-0.3,0.1-0.4c0-0.1,0.1-0.2,0.1-0.3c0.1-0.3,0.3-0.9,0.4-1.1c0.1-0.2,0.2-0.7,0.3-1.3
	c0-0.2,0-0.5-0.1-0.8c0,0,0,0,0,0v0c-0.1-0.1-0.2-0.3-0.7-0.5c-0.3-0.1-0.7-0.3-1.1-0.3c-0.2,0-0.4-0.2-0.4-0.4
	c0-0.2,0.1-0.4,0.3-0.4c0.2-0.1,0.4-0.1,0.5-0.2c0.1,0,0.3-0.2,0.5-0.4c0.2-0.1,0.2-0.2,0.3-0.3c0.1-0.2,0.2-0.3,0.2-0.4
	c0,0,0.1-0.2,0.2-0.5l0,0c0-0.1,0.1-0.2,0.1-0.4c0-0.1,0.1-0.2,0.1-0.3c0.1-0.1,0.2-0.5,0.6-0.8c0.2-0.2,0.4-0.4,0.8-0.6
	c0.4-0.2,0.8-0.3,1.2-0.3c0.4,0,0.9,0,1.3,0.2c0.3,0.1,0.7,0.3,0.9,0.6c0.3,0.3,0.6,0.6,0.8,1c0.1,0.2,0.2,0.4,0.2,0.6
	c0.1,0.3,0.1,0.6,0.1,0.7c0,0.4,0,0.7,0,1c0,0.4,0,0.7,0,1c0.1,0.6,0.3,1,0.4,1.3c0.3,0.6,0.6,1.1,1.1,1.6c0.7,0.7,1.5,1.1,2,1.3
	c0.3,0.1,0.7,0.2,1.3,0.3c0.3-0.6,0.5-1.1,0.5-1.1c0,0,0,0,0,0c0.4-1,0.7-2,0.8-3.1c0.1-1.2,0.1-2.4-0.2-3.6
	c-0.3-1.3-0.9-2.6-1.6-3.7c-0.5-0.8-1.2-1.5-1.9-2.1c-0.8-0.7-1.7-1.2-2.6-1.7c-1.1-0.5-2.4-0.8-3.6-0.9c-0.6,0-1.2,0-1.8,0
	c-0.7,0.1-1.5,0.2-2.2,0.4c-0.6,0.2-1.2,0.4-1.7,0.7c-0.7,0.3-1.3,0.8-1.9,1.2c-1,0.8-1.8,1.7-2.4,2.7c-0.4,0.7-0.7,1.3-1,2.1
	c-0.3,0.8-0.7,2.4-0.6,4.4c0,0.6,0.1,1.2,0.3,1.8C5.6,19,5.8,19.6,6,20c0.3,0.8,0.8,1.6,1.3,2.3c0.8,1,1.7,2,2.8,2.7
	c0.8,0.5,1.6,0.9,2.4,1.2l-0.3,0.8c-0.9-0.3-1.8-0.7-2.6-1.3C8.4,25,7.4,24,6.6,22.9c-0.6-0.8-1-1.6-1.4-2.5
	c-0.2-0.5-0.4-1.1-0.5-1.7c-0.2-0.6-0.3-1.3-0.3-2C4.2,14.6,4.7,12.9,5,12c0.3-0.8,0.6-1.5,1.1-2.2c0.7-1.1,1.6-2.1,2.6-3
	c0.6-0.5,1.3-1,2.1-1.3C11.4,5.2,12,5,12.6,4.8c0.8-0.2,1.6-0.4,2.4-0.5c0.6-0.1,1.3-0.1,1.9,0c1.3,0.1,2.7,0.4,3.9,1
	c1,0.5,2,1.1,2.8,1.8c0.8,0.7,1.5,1.4,2,2.3c0.8,1.2,1.4,2.6,1.8,4c0.3,1.3,0.4,2.6,0.2,3.9c-0.1,1.2-0.4,2.3-0.9,3.4l0,0
	c0,0.1-0.1,0.3-0.3,0.7c0,0,0,0,0,0c0.2,0,0.4,0,0.6-0.1c0.6-0.1,1.1-0.3,1.6-0.7c0.1-0.1,0.3-0.1,0.5,0s0.2,0.3,0.2,0.4
	c-0.2,1-0.5,1.9-1.1,2.7c-0.8,1.3-1.9,2.1-3.1,2.5c-1,0.4-1.9,0.4-2.4,0.3c-0.3,0-0.5,0-0.7-0.1c-0.2,0.1-0.3,0.2-0.5,0.3
	c0,0,0,0,0,0l0,0c-0.1,0-0.1,0.1-0.2,0.1c-0.4,0.2-1.5,0.7-2.8,0.8C18.5,27.7,18.4,27.7,18.2,27.7L18.2,27.7z M15.1,17.3
	C15.1,17.3,15.1,17.3,15.1,17.3C15.1,17.3,15.1,17.3,15.1,17.3c0.3,0.5,0.3,1,0.3,1.3c-0.1,0.7-0.3,1.4-0.3,1.6
	c-0.1,0.3-0.3,0.9-0.4,1.2c0,0,0,0.1-0.1,0.2c0,0.1-0.1,0.2-0.1,0.3c0,0.1-0.1,0.2-0.1,0.4c-0.1,0.5,0,1,0,1.2
	c0.1,0.7,0.5,1.3,0.6,1.6c0.2,0.3,1,1.3,2.4,1.7c0.5,0.1,0.9,0.1,1.2,0.1c1,0,1.7-0.3,2.2-0.5c-0.1,0-0.2-0.1-0.3-0.1
	c-0.2-0.1-0.5-0.2-0.7-0.4c-0.4-0.2-0.7-0.5-0.8-0.6c-0.8-0.8-1.2-1.7-1.3-2c-0.1-0.2-0.2-0.5-0.2-0.8l0.9-0.2
	c0.1,0.2,0.1,0.4,0.2,0.6c0.1,0.3,0.4,1,1.1,1.7c0.2,0.2,0.4,0.4,0.7,0.5c0.2,0.1,0.4,0.2,0.6,0.3c0.4,0.2,0.8,0.3,1,0.3
	c1.3-0.9,2.3-2.3,3-3.5c-0.5-0.1-0.9-0.2-1.1-0.3c-0.6-0.2-1.5-0.7-2.4-1.5c-0.5-0.5-0.9-1.1-1.2-1.8c-0.1-0.3-0.4-0.8-0.5-1.5
	c0-0.3,0-0.6-0.1-1.1c0-0.3,0-0.6,0-1c0-0.1,0-0.3-0.1-0.5c0-0.2-0.1-0.3-0.2-0.4c-0.2-0.3-0.4-0.6-0.6-0.7
	c-0.2-0.2-0.4-0.3-0.7-0.4c-0.3-0.1-0.6-0.2-0.9-0.1c-0.3,0-0.6,0.1-0.9,0.2c-0.2,0.1-0.4,0.3-0.6,0.4c-0.2,0.2-0.4,0.5-0.4,0.6
	c0,0.1-0.1,0.1-0.1,0.2c0,0.1-0.1,0.2-0.1,0.3l0,0C15,14.9,15,15,15,15.1c0,0.1-0.1,0.4-0.4,0.7c-0.2,0.2-0.3,0.3-0.5,0.5
	c-0.1,0.1-0.2,0.2-0.3,0.2c0,0,0.1,0,0.1,0C14.5,16.7,14.8,16.9,15.1,17.3L15.1,17.3L15.1,17.3z M25.9,22.3
	c-0.1,0.3-0.3,0.5-0.5,0.8c-0.7,1.1-1.5,2-2.2,2.7c0.4,0,1-0.1,1.7-0.3c1.1-0.4,2-1.1,2.7-2.2c0.3-0.5,0.5-1,0.7-1.5
	c-0.3,0.1-0.7,0.2-1,0.3C26.8,22.3,26.3,22.3,25.9,22.3L25.9,22.3z"/>
</svg>
