<?xml version="1.0" encoding="utf-8"?>
<!-- Generator: Adobe Illustrator 25.2.0, SVG Export Plug-In . SVG Version: 6.00 Build 0)  -->
<svg version="1.1" id="Layer_1" xmlns="http://www.w3.org/2000/svg" xmlns:xlink="http://www.w3.org/1999/xlink" x="0px" y="0px"
	 viewBox="0 0 1000 1000" style="enable-background:new 0 0 1000 1000;" xml:space="preserve">
<style type="text/css">
	.st0{fill:#FFFFFF;}
</style>
<path class="st0" d="M494.08,947.35c20.78,3.58,41.51,5.4,61.62,5.4c27.67,0,47.55-3.45,56.94-5.5
	c31.45-6.88,60.88-18.91,89.95-36.77l0.76-0.47l0.88,0.12c45.66,6.07,84.22-2.3,94.95-5c44.58-11.26,85.27-36.18,117.69-72.05
	c32.11-35.53,54.58-80.13,64.97-128.96l3.09-14.51c0.32-1.5-0.2-2.98-1.39-3.95c-1.19-0.97-2.74-1.18-4.15-0.55l-13.57,6
	c-15.71,6.95-48.31,18.92-90.04,21.06l-4.03,0.21l1.61-3.7c36.33-83.53,42.41-156.15,42.65-159.2
	c2.19-27.79,3.67-84.27-11.09-150.31c-20.29-90.8-63.24-167.63-127.64-228.38c-59.64-56.26-134.04-95.34-215.15-113.02
	c-81.9-17.86-166.3-12.87-244.07,14.43c-91.28,32.04-171.69,94.88-226.43,176.95C36.03,332.46,9.2,432.68,16.04,531.34
	c6.31,90.87,39.77,177.02,96.77,249.13c53.67,67.91,125.02,119.08,206.33,147.98c2.94,1.04,6.1,0.85,8.91-0.54
	c2.85-1.41,4.95-3.85,5.92-6.88c1.93-6-1.25-12.36-7.22-14.5c-79.06-28.22-148.12-78.81-199.72-146.32
	c-51.71-67.65-82.09-147.35-87.86-230.49C25.81,337.13,143.64,157.97,325.72,94.06c148.93-52.28,319.93-15.55,435.63,93.58
	c138.11,130.28,135.59,308.49,131.52,360c-0.06,0.76-6.41,77.07-45.95,162.73l-0.73,1.57l-1.73-0.13
	c-17.21-1.27-34.33-4.38-50.88-9.23c-84.16-24.68-128.78-85.9-144.05-111.07l-0.07-0.12c-6.99-13.06-12.42-26.49-16.13-39.93
	c-7.63-27.58-6.64-49.17-5.68-70.05c1.27-27.77,2.47-53.99-20.64-81.46c-23.96-28.48-62.03-45.47-98.55-45.47
	c-8.12,0-16.16,0.84-23.95,2.58c-33.8,7.55-51.83,24.65-61,37.67c-9.64,13.68-11.52,25.71-13.19,36.34
	c-1.17,7.47-2.27,14.51-5.93,22.65c-8.96,19.96-29.04,36.11-59.68,47.99l-20.29,7.87c-1.96,0.76-2.61,2.5-2.56,3.88
	c0.05,1.38,0.81,3.07,2.82,3.69l20.79,6.44c18.9,5.86,44.57,18.05,59.52,42.89c0.03,0.05,0.71,1.2,1.33,2.32
	c16.06,29.4,3.7,63.62-9.39,99.86c-3.87,10.71-7.86,21.77-11.1,32.76c-2.59,8.79-11.2,40.46-13,78.64
	c-2.47,52.38,8.77,93.24,33.4,121.44C432.32,931.37,468.4,942.92,494.08,947.35z M859.99,737.03l0.7-1.37l1.54,0
	c29.27,0.1,58.51-4.51,86.86-13.54l4.63-1.47l-1.49,4.62c-12.42,38.59-33.61,73.54-61.26,101.08
	c-27.87,27.75-61.58,47.22-97.48,56.29c-5.4,1.36-25.09,5.84-51.76,6.2l-7.4,0.1l5.83-4.57c11.15-8.74,32.84-26.69,52.77-48.79
	C818.71,807,841.27,773.84,859.99,737.03z M408.07,707.99c3.05-10.34,6.92-21.06,10.67-31.44c14.26-39.47,29-80.29,7.93-118.86
	c-0.78-1.42-1.65-2.9-1.77-3.1c-10.01-16.63-24.54-30.32-43.18-40.69l-3.79-2.11l3.72-2.22c20.93-12.52,35.7-28.11,43.89-46.35
	c4.93-10.99,6.39-20.32,7.68-28.55c1.52-9.68,2.71-17.32,9.23-26.57c6.82-9.68,20.53-22.46,47.1-28.39
	c38.75-8.65,79.49,11.15,99.71,35.18c17.28,20.54,16.46,38.42,15.22,65.48c-0.94,20.56-2.11,46.15,6.5,77.28
	c4.21,15.21,10.34,30.37,18.22,45.04l0.32,0.57c16.63,27.51,65.33,94.54,157.52,121.58c14.48,4.25,29.42,7.28,44.39,9.02l3.66,0.43
	l-1.75,3.24c-16.54,30.68-35.94,58.45-57.66,82.52c-26.8,29.71-57.9,52.18-58.21,52.39c-5.23,3.75-11.12,7.97-17.98,12.5l-0.84,0.55
	l-0.99-0.18c-35.99-6.48-66.81-21.6-91.61-44.93c-33.64-31.65-47.94-70.37-54.02-97.29c-1.35-5.98-7.12-9.93-13.12-8.98
	c-3.21,0.5-5.98,2.26-7.8,4.94c-1.82,2.68-2.43,5.89-1.71,9.04c6.8,30.12,22.86,73.51,60.77,109.18
	c20.93,19.69,45.53,34.32,73.11,43.5l5.89,1.96l-5.6,2.67c-17.9,8.53-36.71,14.98-55.92,19.19c-8.75,1.92-26.74,4.99-51.89,4.99
	c-16.4,0-35.84-1.31-57.77-5.09c-21.98-3.79-52.71-13.5-74.31-38.24C374.15,829.53,404.45,720.26,408.07,707.99z"/>
</svg>
