<?xml version="1.0" encoding="utf-8"?>
<!-- Generator: Adobe Illustrator 25.2.0, SVG Export Plug-In . SVG Version: 6.00 Build 0)  -->
<svg version="1.1" id="Layer_1" xmlns="http://www.w3.org/2000/svg" xmlns:xlink="http://www.w3.org/1999/xlink" x="0px" y="0px"
	 viewBox="0 0 32 32" style="enable-background:new 0 0 32 32;" xml:space="preserve">
<style type="text/css">
	.st0{fill:#CCCCCC;}
	.st1{fill:#B3B3B3;}
	.st2{fill:#999999;}
	.st3{fill:#E6E6E6;}
	.st4{fill:#808080;}
	.st5{fill:none;stroke:#000000;stroke-width:0.5;stroke-miterlimit:10;}
	.st6{fill:none;stroke:#000000;stroke-width:14;stroke-miterlimit:10;}
	.st7{fill:#1A1A1A;}
	.st8{fill:#FFFFFF;stroke:#FFFFFF;stroke-width:0.5;stroke-miterlimit:10;}
</style>
<path d="M24.17,32H7.83C3.51,32,0,28.49,0,24.17V7.83C0,3.51,3.51,0,7.83,0h16.34C28.49,0,32,3.51,32,7.83v16.34
	C32,28.49,28.49,32,24.17,32z"/>
<path class="st8" d="M15.85,27.53c0.54,0.09,1.07,0.14,1.59,0.14c0.71,0,1.23-0.09,1.47-0.14c0.81-0.18,1.57-0.49,2.32-0.95
	l0.02-0.01l0.02,0c1.18,0.16,2.17-0.06,2.45-0.13c1.15-0.29,2.2-0.93,3.03-1.86c0.83-0.92,1.41-2.07,1.67-3.32l0.08-0.37
	c0.01-0.04-0.01-0.08-0.04-0.1c-0.03-0.02-0.07-0.03-0.11-0.01L28,20.93c-0.41,0.18-1.25,0.49-2.32,0.54l-0.1,0.01l0.04-0.1
	c0.94-2.15,1.09-4.02,1.1-4.1c0.06-0.72,0.09-2.17-0.29-3.87c-0.52-2.34-1.63-4.32-3.29-5.89c-1.54-1.45-3.45-2.46-5.54-2.91
	c-2.11-0.46-4.29-0.33-6.29,0.37C8.96,5.8,6.89,7.42,5.47,9.53c-1.43,2.15-2.12,4.73-1.95,7.27c0.16,2.34,1.02,4.56,2.49,6.42
	c1.38,1.75,3.22,3.07,5.32,3.81c0.08,0.03,0.16,0.02,0.23-0.01c0.07-0.04,0.13-0.1,0.15-0.18c0.05-0.15-0.03-0.32-0.19-0.37
	c-2.04-0.73-3.82-2.03-5.15-3.77c-1.33-1.74-2.12-3.8-2.26-5.94C3.78,11.8,6.82,7.19,11.51,5.54c3.84-1.35,8.25-0.4,11.23,2.41
	c3.56,3.36,3.49,7.95,3.39,9.28c0,0.02-0.17,1.99-1.18,4.19l-0.02,0.04l-0.04,0c-0.44-0.03-0.88-0.11-1.31-0.24
	c-2.17-0.64-3.32-2.21-3.71-2.86l0,0c-0.18-0.34-0.32-0.68-0.42-1.03c-0.2-0.71-0.17-1.27-0.15-1.81c0.03-0.72,0.06-1.39-0.53-2.1
	c-0.62-0.73-1.6-1.17-2.54-1.17c-0.21,0-0.42,0.02-0.62,0.07c-0.87,0.19-1.34,0.64-1.57,0.97c-0.25,0.35-0.3,0.66-0.34,0.94
	c-0.03,0.19-0.06,0.37-0.15,0.58c-0.23,0.51-0.75,0.93-1.54,1.24l-0.52,0.2c-0.05,0.02-0.07,0.06-0.07,0.1
	c0,0.04,0.02,0.08,0.07,0.1l0.54,0.17c0.49,0.15,1.15,0.47,1.53,1.11c0,0,0.02,0.03,0.03,0.06c0.41,0.76,0.1,1.64-0.24,2.57
	c-0.1,0.28-0.2,0.56-0.29,0.84c-0.07,0.23-0.29,1.04-0.34,2.03c-0.06,1.35,0.23,2.4,0.86,3.13C14.26,27.12,15.19,27.42,15.85,27.53z
	 M25.28,22.11l0.02-0.04l0.04,0c0.75,0,1.51-0.12,2.24-0.35l0.12-0.04l-0.04,0.12c-0.32,0.99-0.87,1.9-1.58,2.61
	c-0.72,0.72-1.59,1.22-2.51,1.45c-0.14,0.04-0.65,0.15-1.33,0.16l-0.19,0l0.15-0.12c0.29-0.23,0.85-0.69,1.36-1.26
	C24.21,23.91,24.8,23.06,25.28,22.11z M13.63,21.36c0.08-0.27,0.18-0.54,0.28-0.81c0.37-1.02,0.75-2.07,0.2-3.06
	c-0.02-0.04-0.04-0.07-0.05-0.08c-0.26-0.43-0.63-0.78-1.11-1.05l-0.1-0.05l0.1-0.06c0.54-0.32,0.92-0.72,1.13-1.19
	c0.13-0.28,0.16-0.52,0.2-0.74c0.04-0.25,0.07-0.45,0.24-0.68c0.18-0.25,0.53-0.58,1.21-0.73c1-0.22,2.05,0.29,2.57,0.91
	c0.45,0.53,0.42,0.99,0.39,1.69c-0.02,0.53-0.05,1.19,0.17,1.99c0.11,0.39,0.27,0.78,0.47,1.16l0.01,0.01
	c0.43,0.71,1.68,2.44,4.06,3.13c0.37,0.11,0.76,0.19,1.14,0.23l0.09,0.01l-0.05,0.08c-0.43,0.79-0.93,1.51-1.49,2.13
	c-0.69,0.77-1.49,1.34-1.5,1.35c-0.13,0.1-0.29,0.21-0.46,0.32l-0.02,0.01l-0.03,0c-0.93-0.17-1.72-0.56-2.36-1.16
	c-0.87-0.82-1.24-1.81-1.39-2.51c-0.03-0.15-0.18-0.26-0.34-0.23c-0.08,0.01-0.15,0.06-0.2,0.13c-0.05,0.07-0.06,0.15-0.04,0.23
	c0.18,0.78,0.59,1.89,1.57,2.81c0.54,0.51,1.17,0.88,1.88,1.12l0.15,0.05l-0.14,0.07c-0.46,0.22-0.95,0.39-1.44,0.49
	c-0.23,0.05-0.69,0.13-1.34,0.13c-0.42,0-0.92-0.03-1.49-0.13c-0.57-0.1-1.36-0.35-1.92-0.99C12.76,24.49,13.54,21.68,13.63,21.36z"
	/>
</svg>
