<?xml version="1.0" encoding="UTF-8"?><svg id="Layer_1" xmlns="http://www.w3.org/2000/svg" viewBox="0 0 32 32"><defs><style>.cls-1{fill:#fff;}</style></defs><path d="M24.2,32H7.8c-4.3,0-7.8-3.5-7.8-7.8V7.8C0,3.5,3.5,0,7.8,0H24.1c4.4,0,7.9,3.5,7.9,7.8V24.1c0,4.4-3.5,7.9-7.8,7.9Z"/><path class="cls-1" d="M29.62723,20.64816c-.19238-.13184-.44629-.13965-.64941-.01953-.5127,.30957-1.06738,.5293-1.64941,.6543-.12793,.02734-.25781,.0498-.3877,.06738,.11816-.24414,.19629-.41797,.24121-.53613l.00879-.01855c.48047-1.1123,.79102-2.28418,.9248-3.48438,.15137-1.36328,.07129-2.73389-.2373-4.07373-.33887-1.46924-.96973-2.90479-1.8252-4.15186-.59668-.87012-1.30762-1.66211-2.11328-2.354-.89258-.76562-1.88574-1.396-2.9502-1.87256-1.25586-.5625-2.65039-.9165-4.0332-1.02344-.65918-.05127-1.33008-.04883-1.99365,.00879-.83984,.07227-1.67139,.23193-2.47168,.47363-.65381,.19727-1.29834,.4541-1.91553,.7627-.76416,.38184-1.49268,.84863-2.16455,1.38721-1.08789,.87158-2.01025,1.91211-2.74219,3.09229-.45557,.73535-.83203,1.51611-1.11865,2.32227-.31738,.88965-.82617,2.71387-.6748,4.92969,.04688,.67578,.15479,1.37695,.3125,2.0293,.1416,.58496,.32812,1.16211,.55371,1.71582,.37646,.9248,.86719,1.80078,1.4585,2.60645,.86084,1.17285,1.96191,2.21387,3.18359,3.00879,.85352,.55371,1.7749,1.00098,2.73926,1.32812l.13574,.0459,.38672-1.1416-.13574-.0459c-.87109-.2959-1.70166-.69824-2.46875-1.19727-1.09961-.71484-2.0918-1.65137-2.86963-2.71094-.53223-.72559-.97461-1.51562-1.31396-2.34766-.20361-.50098-.37158-1.02148-.49854-1.54492-.14209-.58984-.23926-1.22168-.28076-1.82764-.13721-2.00146,.32129-3.64307,.60693-4.44385,.25879-.72705,.59814-1.43066,1.00781-2.09082,.6499-1.04834,1.50488-2.01221,2.47217-2.7876,.60352-.48438,1.25977-.90479,1.94971-1.25049,.55176-.27637,1.13232-.50732,1.72559-.68652,.72021-.21777,1.46924-.36133,2.22607-.42676,.59961-.05127,1.2041-.05371,1.79688-.00781,1.24756,.09668,2.50439,.41553,3.63428,.92188,.95996,.43018,1.85449,.99805,2.65723,1.68799,.72754,.62305,1.36816,1.33691,1.90527,2.12061,.77051,1.12256,1.33887,2.4165,1.64453,3.74121,.27832,1.20801,.34961,2.44287,.21289,3.66992-.11914,1.08008-.39941,2.13672-.83691,3.15039-.00195,.00391-.1709,.41406-.49512,1.03418-.52441-.06055-.94824-.18652-1.21777-.2832-.53125-.19141-1.31445-.57227-2.0293-1.30371-.43848-.44629-.80566-.98535-1.0625-1.55762-.13574-.30078-.32129-.71191-.39355-1.28369-.0332-.25781-.03906-.521-.0498-.98584l-.00391-.15039c-.00586-.24414-.0127-.53711-.02637-.8916-.00488-.10742-.01562-.39258-.10938-.75244-.06152-.23096-.14746-.45752-.25684-.67285-.20312-.3999-.49121-.76514-.83398-1.05518-.30273-.25635-.64258-.45557-1.00977-.59229-.4375-.16211-.89062-.23438-1.36621-.2085-.45312,.02393-.9082,.1416-1.31494,.34082-.42871,.20996-.72949,.46777-.90625,.64697-.3584,.36328-.54102,.72168-.62061,.87793-.05029,.09912-.09619,.20166-.13623,.30127-.06299,.15479-.09912,.271-.13672,.39258-.08398,.26855-.14404,.4624-.15527,.49414-.03906,.10156-.09814,.25488-.2168,.41211-.08301,.11084-.1582,.17383-.31201,.30127-.2334,.19434-.44043,.31006-.51855,.35107-.16553,.08594-.34326,.15479-.52734,.20557-.27148,.07422-.4541,.32227-.44385,.604,.01074,.28125,.21143,.51465,.4873,.56836,.37207,.07227,.73145,.18164,1.06787,.32324,.43848,.18555,.57422,.31543,.6416,.41699l.02979,.05273c.11816,.2207,.11621,.46777,.09668,.70215-.05469,.6543-.22314,1.20117-.27393,1.35352-.08789,.26562-.3042,.86426-.42236,1.15625-.01855,.04688-.05518,.13965-.09619,.26172-.04688,.13867-.08838,.28027-.12305,.42285-.02637,.1084-.0752,.32715-.10645,.5752-.08936,.70215,.00098,1.33594,.03076,1.5127,.15381,.91602,.53271,1.61621,.82324,2.04297,.26953,.39551,1.28955,1.71777,3.1001,2.13574,.31445,.07227,.63477,.1123,.97656,.12109l.14453,.00195v-.00098c.13867,0,.25977-.00488,.36621-.00879,1.41699-.05859,2.55371-.59375,2.9834-.7959,.05566-.02637,.1123-.05273,.15527-.07617l.03906-.01855c.14551-.07227,.29004-.15137,.43359-.2373,.22949,.0332,.44922,.05566,.65234,.06641,.5,.03027,1.48633,.01465,2.53027-.35254,1.30176-.45703,2.40625-1.35547,3.28223-2.6709,.57129-.85645,.94922-1.81934,1.12598-2.85938,.03906-.23242-.06055-.46777-.25488-.59863Zm-10.90723,2.33301c-.08301-.21094-.15234-.42578-.20508-.64062l-.03418-.13965-1.16895,.28906,.03418,.13867c.06543,.2666,.14941,.53418,.25098,.79395,.13965,.35547,.51074,1.30078,1.40234,2.12891,.17578,.16406,.46875,.41113,.86426,.65625,.21582,.13281,.44629,.25488,.68359,.36133-.65234,.25195-1.2959,.39258-1.91992,.41895-.28516,.00879-.67871,.02637-1.16406-.08496-1.38232-.31836-2.16748-1.33496-2.37549-1.63965-.18213-.2666-.50635-.82617-.63086-1.56348-.02246-.13672-.09131-.62305-.02295-1.16309,.02344-.18652,.06104-.35645,.08105-.43945,.02637-.1084,.05811-.2168,.09375-.32324,.03564-.10449,.06689-.18164,.08105-.21777,.11865-.29297,.34521-.91895,.44092-1.20703,.06055-.18457,.26465-.84863,.33008-1.63281,.03125-.375,.03223-.86914-.23486-1.36914-.01465-.02734-.02979-.05469-.04541-.08105l-.01221-.02051c-.21777-.35352-.53223-.60547-1.06738-.84863,.0332-.02637,.06787-.0542,.10303-.0835,.17041-.14209,.33105-.27637,.49707-.49707,.22217-.29443,.3291-.57471,.38086-.70947,.01904-.04883,.05273-.15723,.18604-.5874,.02832-.08984,.05322-.16943,.09668-.27637,.02832-.06982,.05908-.13867,.09375-.20654,.05615-.11133,.17383-.34375,.40381-.57666,.15723-.15967,.36279-.30566,.57812-.41113,.26172-.12842,.55566-.2041,.84912-.21973,.29883-.02148,.59766,.02881,.88184,.13428,.23438,.08789,.45996,.22021,.65137,.38281,.1543,.13037,.37305,.354,.53906,.68213,.06934,.13525,.125,.28125,.16504,.43213,.06152,.23486,.06836,.42188,.07031,.49316,.0166,.4209,.02441,.75537,.03125,1.03418,.01074,.46729,.01758,.77588,.05859,1.09863,.0957,.75293,.34277,1.29883,.48926,1.625,.31738,.70801,.75488,1.34961,1.30078,1.9082,.875,.89453,1.83301,1.36035,2.48145,1.59375,.22461,.08105,.56738,.18848,.99121,.26953-.65527,1.0625-1.66211,2.43262-2.91211,3.30957-.23828-.05176-.58008-.13867-.97266-.31152-.19629-.08691-.39258-.19043-.56738-.29883-.24219-.15039-.4834-.33301-.67773-.5127-.69141-.64258-.98828-1.40234-1.09961-1.68848Zm9.65039-.74121c-.16113,.42188-.36816,.8252-.61719,1.2002-.72754,1.0918-1.62891,1.83301-2.67969,2.20215-.4707,.16504-.92578,.24023-1.2959,.27148,.70508-.6748,1.38574-1.52246,2.02832-2.52441,.16309-.25586,.32227-.51953,.47461-.78516,.44043-.00391,.87793-.05273,1.30078-.14355,.2666-.05664,.53125-.13086,.78906-.2207Z"/></svg>