<svg xmlns="http://www.w3.org/2000/svg" width="1133.072" height="143.867" viewBox="0 0 1133.072 143.867">
  <path id="H1_dec" data-name="H1 dec" d="M1314.328,203.58c-29.349-7.123-73.337-16.712-130.157-25.158C1008.453,152.3,796.135,154.45,611.659,165.531c-103.99,6.246-206.243,17.087-301.833,33.255C260.7,207.094,187.355,221.2,185.7,243.812c-1.3,17.745,41.771,28.9,83.158,34.507,211.734,28.714,450.508,19.648,669.091,8.09,97.927-5.177,196.985-14.154,283.209-32.262q2-.422,3.991-.848c15.577-3.345,54.315-11.933,58.951-23.592,3.761-9.462-15.361-20.058-45.354-26.709" transform="translate(-183.671 -155.601)" fill="none" stroke="#fff" stroke-linecap="round" stroke-width="4"/>
</svg>
