<?xml version="1.0" encoding="UTF-8"?>
<svg id="Layer_2" data-name="Layer 2" xmlns="http://www.w3.org/2000/svg" viewBox="0 0 701.5 101.5">
  <defs>
    <style>
      .cls-1 {
        fill: none;
        stroke: #fff;
        stroke-miterlimit: 10;
        stroke-width: 1.5px;
      }

      .cls-2 {
        fill: #fff;
        stroke-width: 0px;
      }
    </style>
  </defs>
  <g id="Layer_1-2" data-name="Layer 1">
    <g>
      <rect class="cls-1" x=".75" y=".75" width="700" height="100" rx="50" ry="50"/>
      <g>
        <path class="cls-2" d="m53.84,62.45v-25.76h11.32c2.53,0,4.37.59,5.5,1.76,1.13,1.17,1.7,2.83,1.7,4.96,0,1.44-.3,2.64-.9,3.6s-1.42,1.67-2.46,2.12c1.33.29,2.4.92,3.2,1.88.8.96,1.2,2.35,1.2,4.16,0,2.51-.63,4.35-1.88,5.52-1.25,1.17-3.12,1.76-5.6,1.76h-12.08Zm2.2-14.16h9.32c1.81,0,3.09-.45,3.82-1.34.73-.89,1.1-2.03,1.1-3.42,0-1.65-.38-2.91-1.14-3.78-.76-.87-2.25-1.3-4.46-1.3h-8.64v9.84Zm0,12.44h9.68c1.89,0,3.29-.43,4.18-1.3.89-.87,1.34-2.31,1.34-4.34,0-1.65-.43-2.91-1.3-3.78-.87-.87-2.47-1.3-4.82-1.3h-9.08v10.72Z"/>
        <path class="cls-2" d="m90.6,62.45v-25.76h10.76c2.69,0,4.65.69,5.86,2.08,1.21,1.39,1.82,3.25,1.82,5.6,0,1.97-.47,3.59-1.42,4.84-.95,1.25-2.37,2.07-4.26,2.44.61.29,1.06.65,1.34,1.08.28.43.58.99.9,1.68l3.44,8.04h-2.24l-3.4-7.76c-.27-.61-.56-1.11-.88-1.48-.32-.37-.76-.65-1.32-.82-.56-.17-1.35-.26-2.36-.26h-6.04v10.32h-2.2Zm2.2-12.08h7.92c1.89,0,3.39-.47,4.48-1.42,1.09-.95,1.64-2.47,1.64-4.58,0-3.92-1.88-5.88-5.64-5.88h-8.4v11.88Z"/>
        <path class="cls-2" d="m123.68,62.45l9.76-25.76h2.8l9.72,25.76h-2.24l-2.84-7.52h-12.08l-2.84,7.52h-2.28Zm5.6-9.32h11.08l-5.56-14.68-5.52,14.68Z"/>
        <path class="cls-2" d="m163.15,62.45v-25.76h2.08l15.96,22.48v-22.48h2.2v25.76h-2.12l-15.92-22.44v22.44h-2.2Z"/>
        <path class="cls-2" d="m201.39,62.45v-25.76h9.68c2.48,0,4.48.45,6,1.34,1.52.89,2.63,2.3,3.34,4.22s1.06,4.43,1.06,7.52c0,4.37-.79,7.58-2.38,9.62-1.59,2.04-4.26,3.06-8.02,3.06h-9.68Zm2.2-1.76h7c1.95,0,3.56-.29,4.84-.88,1.28-.59,2.24-1.67,2.88-3.24.64-1.57.96-3.84.96-6.8s-.29-5.22-.86-6.86c-.57-1.64-1.49-2.79-2.76-3.44-1.27-.65-2.95-.98-5.06-.98h-7v22.2Z"/>
        <path class="cls-2" d="m260.07,62.45v-25.76h9.68c2.48,0,4.48.45,6,1.34s2.63,2.3,3.34,4.22c.71,1.92,1.06,4.43,1.06,7.52,0,4.37-.79,7.58-2.38,9.62s-4.26,3.06-8.02,3.06h-9.68Zm2.2-1.76h7c1.95,0,3.56-.29,4.84-.88,1.28-.59,2.24-1.67,2.88-3.24.64-1.57.96-3.84.96-6.8s-.29-5.22-.86-6.86c-.57-1.64-1.49-2.79-2.76-3.44-1.27-.65-2.95-.98-5.06-.98h-7v22.2Z"/>
        <path class="cls-2" d="m297.35,62.45v-25.76h16.84v1.8h-14.64v10.2h13.24v1.76h-13.24v10.24h14.64v1.76h-16.84Z"/>
        <path class="cls-2" d="m338.31,62.85c-3.09,0-5.59-.37-7.48-1.12v-1.96c2.21.8,4.65,1.2,7.32,1.2,2.51,0,4.4-.39,5.68-1.16,1.28-.77,1.92-2.08,1.92-3.92,0-1.12-.25-2.03-.76-2.72-.51-.69-1.31-1.27-2.42-1.74-1.11-.47-2.59-.9-4.46-1.3-1.97-.45-3.54-.98-4.7-1.58s-1.99-1.34-2.48-2.22-.74-1.92-.74-3.12c0-2.08.75-3.75,2.26-5.02,1.51-1.27,3.83-1.9,6.98-1.9,1.44,0,2.79.11,4.04.32,1.25.21,2.21.43,2.88.64v1.96c-1.92-.67-4.08-1-6.48-1s-4.29.39-5.58,1.18c-1.29.79-1.94,2.06-1.94,3.82,0,.99.22,1.79.66,2.42.44.63,1.19,1.15,2.26,1.58,1.07.43,2.53.87,4.4,1.32,2.11.48,3.75,1.06,4.94,1.74,1.19.68,2.03,1.48,2.54,2.4s.76,1.99.76,3.22c0,2.29-.81,4.03-2.44,5.2-1.63,1.17-4.01,1.76-7.16,1.76Z"/>
        <path class="cls-2" d="m365.11,62.45v-25.76h2.2v25.76h-2.2Z"/>
        <path class="cls-2" d="m396.35,62.85c-2.72,0-4.95-.53-6.7-1.58s-3.04-2.52-3.88-4.4-1.26-4.07-1.26-6.58c0-2.8.39-5.25,1.16-7.34.77-2.09,2.03-3.73,3.76-4.9,1.73-1.17,4.03-1.76,6.88-1.76,1.47,0,2.81.09,4.02.28,1.21.19,2.33.45,3.34.8v1.96c-1.01-.35-2.13-.62-3.34-.82-1.21-.2-2.47-.3-3.78-.3-2.51,0-4.48.5-5.92,1.5-1.44,1-2.46,2.4-3.06,4.2-.6,1.8-.9,3.93-.9,6.38,0,3.36.78,5.98,2.34,7.86,1.56,1.88,4.09,2.82,7.58,2.82,1.25,0,2.49-.11,3.7-.34,1.21-.23,2.26-.51,3.14-.86v-9.16h-7.32v-1.76h9.32v12.04c-.72.48-1.81.93-3.26,1.34-1.45.41-3.39.62-5.82.62Z"/>
        <path class="cls-2" d="m422.63,62.45v-25.76h2.08l15.96,22.48v-22.48h2.2v25.76h-2.12l-15.92-22.44v22.44h-2.2Z"/>
      </g>
      <g>
        <line class="cls-1" x1="554.35" y1="62.15" x2="573.03" y2="62.15"/>
        <rect class="cls-1" x="590.98" y="43.47" width="18.69" height="18.69"/>
        <g>
          <line class="cls-1" x1="627.61" y1="43.35" x2="646.42" y2="62.15"/>
          <line class="cls-1" x1="646.42" y1="43.35" x2="627.61" y2="62.15"/>
        </g>
      </g>
    </g>
  </g>
</svg>