<?xml version="1.0" encoding="UTF-8"?><svg id="Layer_1" xmlns="http://www.w3.org/2000/svg" viewBox="0 0 1000 936.24"><path d="M556.08,936.24c-11.36,0-25.84-.85-42.28-4.64-68.34-15.76-106.83-65.68-117-80.61-10.97-16.09-25.26-42.52-31.08-77.09-1.12-6.68-4.53-30.53-1.15-57.15,1.26-9.95,3.23-18.49,4.01-21.71,1.31-5.35,2.87-10.71,4.64-15.94,1.84-5.44,3.43-9.37,3.96-10.67,4.3-10.65,12.77-34.04,16.2-44.42,2.01-6.06,8.72-27.87,10.89-53.85,.83-9.93,.87-20.48-4.38-30.31-.33-.61-.68-1.23-1.04-1.83v-.02c-3.09-5-8.6-10.79-27.79-18.89-13.48-5.69-27.79-10.03-42.55-12.89-8.13-1.58-14.11-8.55-14.42-16.83s5.12-15.68,13.12-17.87c7.48-2.04,14.75-4.88,21.59-8.42,3.16-1.64,11.57-6.32,21.13-14.28,6.03-5.02,9.36-7.79,13.01-12.64,5.1-6.77,7.66-13.45,9.18-17.44,.47-1.3,2.83-8.9,6.11-19.42l.11-.36c1.32-4.24,2.68-8.61,5.04-14.44,1.5-3.75,3.23-7.58,5.11-11.29,2.91-5.72,9.71-19.11,23.09-32.68,6.58-6.67,17.76-16.26,33.67-24.04,15.13-7.4,32.04-11.78,48.9-12.67,17.43-.92,34.52,1.69,50.8,7.76,13.69,5.1,26.32,12.52,37.55,22.03,12.73,10.79,23.45,24.35,31.02,39.23,4.06,7.98,7.26,16.4,9.53,25.03,3.5,13.31,3.91,23.98,4.06,28,.64,16.68,.94,29.83,1.19,40.38,.41,17.66,.65,28.32,1.99,38.85,2.9,22.88,10.3,39.37,15.7,51.4,10.21,22.76,24.86,44.24,42.35,62.12,28.48,29.1,59.71,44.31,80.89,51.94,11.68,4.21,29.88,9.47,52.35,11.68,13.61-25.75,20.97-43.44,21.19-43.99,.04-.11,.09-.22,.14-.32,17.01-39.37,28.04-80.91,32.76-123.47,5.36-48.33,2.54-96.89-8.41-144.35-12.01-52.11-34.38-102.99-64.67-147.15-21.16-30.85-46.36-58.91-74.91-83.41-31.64-27.15-66.81-49.48-104.54-66.38-44.48-19.92-93.9-32.46-142.93-36.27-23.37-1.82-47.15-1.71-70.67,.33-29.81,2.57-59.27,8.22-87.58,16.77-23.25,7.03-46.09,16.12-67.87,27.02-27.12,13.57-52.93,30.12-76.7,49.17-38.03,30.48-71.64,68.39-97.21,109.63-16.12,25.99-29.45,53.66-39.64,82.25-11.23,31.51-29.27,96.13-23.89,174.77,1.63,23.89,5.46,48.75,11.06,71.88,5,20.66,11.6,41.11,19.61,60.78,13.31,32.68,30.7,63.75,51.68,92.34,30.54,41.62,69.57,78.49,112.86,106.64,30.14,19.6,62.81,35.44,97.11,47.09l-11.46,33.76c-37.1-12.59-72.46-29.74-105.09-50.96-46.86-30.47-89.1-70.39-122.16-115.44-22.72-30.95-41.54-64.59-55.96-99.99-8.68-21.3-15.82-43.46-21.24-65.84-6.07-25.06-10.21-51.98-11.98-77.84-5.82-85.08,13.72-155.04,25.88-189.17,11.03-30.96,25.47-60.93,42.92-89.07,28.07-45.28,63.47-85.2,105.21-118.66,25.73-20.62,53.67-38.53,83.04-53.23,23.59-11.8,48.32-21.65,73.51-29.26,30.66-9.27,62.57-15.38,94.82-18.17,25.45-2.2,51.19-2.32,76.5-.35,53.06,4.12,106.57,17.7,154.74,39.28,40.86,18.3,78.94,42.48,113.19,71.86,30.9,26.52,58.19,56.9,81.1,90.3,32.79,47.81,57,102.89,70,159.31,11.85,51.38,14.91,103.96,9.1,156.29-5.11,46.08-17.05,91.05-35.47,133.68l-.05-.02c-1.75,4.82-5.54,13.33-13.7,29.83-.1,.2-.2,.4-.3,.61,8.29-.72,16.88-1.97,25.7-3.86,23.13-4.96,45.25-13.72,65.72-26.03,5.97-3.59,13.48-3.37,19.23,.55s8.69,10.84,7.53,17.71c-6.74,39.66-21.16,76.31-42.88,108.9-33.29,49.99-75.24,84.15-124.66,101.54-39.76,13.99-77.24,14.37-96.05,13.36-10.03-.54-19.34-1.69-26.79-2.85-6.01,3.66-12.06,7.02-18.15,10.07-.34,.17-.71,.36-1.1,.54h0c-2.07,1.04-4.2,2.07-6.33,3.07-16.33,7.69-59.7,28.14-113.71,30.36-3.87,.16-8.58,.35-14.01,.35Zm-126.81-416.75s.02,.04,.03,.06c.69,1.14,1.36,2.32,1.99,3.5,9.71,18.15,9.63,36.31,8.48,50.1-2.5,29.89-10.25,55.07-12.57,62.07-3.63,10.96-12.35,35.08-16.98,46.55-.45,1.11-1.75,4.31-3.25,8.76-1.44,4.26-2.71,8.63-3.78,13-.5,2.04-2.21,9.36-3.27,17.71-2.76,21.78,.02,41.28,.94,46.74,5,29.69,18.05,52.17,25.39,62.93,8.33,12.22,39.83,53.09,95.56,65.94,19.62,4.52,35.34,3.88,46.82,3.41,37.92-1.56,69.58-13.39,88.69-21.81-3.58-1.36-7.3-2.87-11.12-4.56-9.45-4.18-18.54-8.96-27.03-14.21-14.92-9.24-26.01-18.57-32.68-24.77-33.62-31.25-47.72-67.14-53.03-80.66-3.84-9.79-7.07-19.91-9.58-30.09l34.61-8.55c2.14,8.66,4.89,17.28,8.16,25.61,4.5,11.45,16.44,41.85,44.12,67.57,7.79,7.24,17.45,14.55,27.18,20.58,6.99,4.33,14.84,8.45,22.68,11.92,17.54,7.76,32.34,11.11,41.23,12.94,51.78-35.56,93.06-92.15,120.84-138.48-19.12-3.04-34.75-7.72-45.57-11.62-24.68-8.89-61.08-26.62-94.28-60.54-20.7-21.15-37.32-45.53-49.4-72.46-5.96-13.28-14.97-33.36-18.54-61.51-1.57-12.35-1.84-24.35-2.26-42.51-.24-10.44-.54-23.43-1.17-39.84-.12-3.23-.41-10.78-2.92-20.31-1.62-6.18-3.92-12.21-6.83-17.93-6.87-13.5-15.92-22.79-22.3-28.19-7.95-6.74-17.27-12.21-26.95-15.82-11.68-4.35-23.95-6.23-36.47-5.56-12.11,.64-24.26,3.78-35.12,9.09-8.89,4.35-17.4,10.4-23.95,17.05-9.49,9.62-14.35,19.19-16.69,23.79-1.4,2.75-2.68,5.59-3.82,8.44-1.84,4.54-2.88,7.87-4.08,11.73l-.09,.3c-4.85,15.59-6.14,19.73-6.86,21.61-1.91,4.99-5.88,15.38-14.02,26.18-6.14,8.14-11.94,12.97-18.66,18.57-3.96,3.3-7.77,6.16-11.29,8.62,1.17,.47,2.33,.95,3.49,1.44,22.98,9.71,35.81,19.3,44.29,33.11l.06,.1Zm432.91,199.48c-5.85,10.31-12.51,21.49-19.91,33.04-28.2,44.01-58.03,79.9-89.16,107.35,17.46-.29,41.87-2.72,67.27-11.65,41.97-14.76,77.9-44.26,106.82-87.67,12.18-18.29,21.73-38.06,28.57-59.08-13.28,5.36-27,9.57-41.04,12.58-18.54,3.97-36.24,5.47-52.55,5.44Z"/></svg>