<svg xmlns="http://www.w3.org/2000/svg" viewBox="0 0 1126.08 1051.56"><g id="Layer_2" data-name="Layer 2"><g id="Layer_1-2" data-name="Layer 1"><path d="M627.36,1051.56a422.4,422.4,0,0,1-71.66-6.28c-30.11-5.2-72.45-18.76-103.13-53.89-29-33.15-42.18-81-39.28-142.29a411,411,0,0,1,15.12-91.5c3.77-12.78,8.4-25.6,12.88-38,14.89-41.22,28.95-80.16,11-113-.67-1.22-1.44-2.51-1.48-2.58-16.79-27.89-45.77-41.64-67.12-48.26l-24-7.43a7.53,7.53,0,0,1-.49-14.2l23.43-9.09C417.3,511.63,440,493.49,450,471.15c4.07-9,5.31-17,6.63-25.42,2-12.58,4.21-26.83,15.72-43.18,10.89-15.45,32.26-35.74,72.19-44.66,50.5-11.27,109.83,9.5,144.32,50.5,27.42,32.59,26,63.43,24.51,96.07-1.09,23.89-2.22,48.59,6.47,80A222.55,222.55,0,0,0,738.2,630c17.65,29.08,68.62,98.82,164.72,127a280.42,280.42,0,0,0,58.17,10.55c45.16-97.84,52.71-185.71,52.81-187,4.67-59.17,7.57-263.87-151-413.45C730.05,41.83,533.72-.35,362.71,59.67c-209.06,73.39-344.36,279.1-329,500.26C47.21,754.71,179.13,926.64,363.91,992.59A16.31,16.31,0,0,1,374,1012.92h0a16.24,16.24,0,0,1-20.84,10.41A531.43,531.43,0,0,1,113.59,851.5C47.4,767.75,8.54,667.71,1.22,562.18-6.73,447.6,24.44,331.21,89,234.44c63.56-95.3,157-168.27,263-205.48C442.25-2.75,540.26-8.55,635.38,12.2A527.62,527.62,0,0,1,885.23,143.45C960,214,1009.91,303.25,1033.48,408.69c17.13,76.63,15.42,142.19,12.87,174.45-.41,5.17-7.56,88.4-49.48,184.79a297.48,297.48,0,0,0,103-24.09l15.67-6.92a7.52,7.52,0,0,1,10.4,8.44l-3.57,16.76C1110.23,819,1084,871,1046.62,912.4c-37.82,41.85-85.32,70.92-137.36,84.07-13.42,3.39-57.86,12.87-110.74,5.84-25.68,15.78-60.54,33.14-104.78,42.83C682.51,1047.6,659.41,1051.56,627.36,1051.56ZM427.84,539.31c18.68,10.4,37.48,25.67,50.94,48,0,.07,1.14,1.92,2.1,3.68,25,45.68,7.71,93.45-9,139.64-4.32,12-8.78,24.31-12.27,36.15-4.14,14-38.77,138.8,17.45,203.17,24.4,27.93,59.23,38.92,84.15,43.22,63.68,11,109,3.75,125.53.14a294.38,294.38,0,0,0,64-21.94,229.21,229.21,0,0,1-85.5-50.88c-44.57-41.93-63.23-93-71-127.56a16.26,16.26,0,0,1,13.36-19.63h0A16.29,16.29,0,0,1,626,805.92c6.82,30.18,23,74.65,61.56,110.89,32.31,30.4,69.8,44.93,104.34,51.15,7.9-5.22,14.78-10.15,20.68-14.38.35-.25,35.94-25.93,66.76-60.09,27.07-30,48.79-62.49,66.19-94.75a310.54,310.54,0,0,1-51.75-10.52C786.31,756.71,729.55,678.59,710.13,646.47l-.4-.72a255,255,0,0,1-21.29-52.61c-10.07-36.4-8.7-66.21-7.6-90.16,1.39-30.58,2.32-50.78-16.91-73.64-22.79-27.09-68.68-49.42-112.32-39.67-29.79,6.64-45.08,20.87-52.67,31.63-7.14,10.14-8.41,18.25-10.17,29.47-1.51,9.69-3.23,20.68-9.09,33.72C469.94,506.17,452.57,524.53,427.84,539.31ZM981.37,800.84c-19.59,38.55-45,78-77.88,114.45-22.88,25.36-47.6,46-61.31,56.69a269.33,269.33,0,0,0,59.11-7.07c83.78-21.17,152.44-90.24,181.29-179.84a333.71,333.71,0,0,1-101.21,15.77Z"/></g></g></svg>