<svg id="Layer_1" data-name="Layer 1" xmlns="http://www.w3.org/2000/svg" viewBox="0 0 500 375"><defs><style>.cls-1{fill:#fff;}</style></defs><path class="cls-1" d="M498.45,373.08a76.18,76.18,0,0,1-76.38,64.41H79.25A78.75,78.75,0,0,1,0,360V196.73c0-13.68,8.82-18.91,21.51-12.41Q128,240,234.21,295.32a30.85,30.85,0,0,0,31.44,0q105.78-55.5,211.82-110a23.93,23.93,0,0,1,6.59-2.51,11.91,11.91,0,0,1,15.68,12.41V336.49a218.22,218.22,0,0,1-1.28,36.59" transform="translate(0 -62.5)"/><path class="cls-1" d="M494.32,119.71a13.6,13.6,0,0,1-9,8.62L260,246a18.89,18.89,0,0,1-18.72,0L12.9,127.33a11.89,11.89,0,0,1-6.31-18.08A75.74,75.74,0,0,1,79.47,62.57h340a76.86,76.86,0,0,1,73.07,44.76,13.59,13.59,0,0,1,1.83,12.38" transform="translate(0 -62.5)"/></svg>