<?xml version="1.0" encoding="utf-8"?>
<!-- Generator: Adobe Illustrator 26.3.1, SVG Export Plug-In . SVG Version: 6.00 Build 0)  -->
<svg version="1.1" id="Layer_1" xmlns="http://www.w3.org/2000/svg" xmlns:xlink="http://www.w3.org/1999/xlink" x="0px" y="0px"
	 viewBox="0 0 500 500" style="enable-background:new 0 0 500 500;" xml:space="preserve">
<g>
	<g>
		<path d="M275.7,302.9L113.1,165.1c-2.2-1.9-5.8-1.3-8.2,1.4c-2.3,2.7-2.3,6.4-0.1,8.3l162.6,137.9l0,0c0.9,0.7,1.9,1,3,1
			c1.8,0,3.7-0.9,5.2-2.6C277.9,308.6,277.9,304.8,275.7,302.9z"/>
		<path d="M267.7,148.7c-10.6-9-26.6-7.7-35.7,2.9l-28.9,34.1c-9,10.6-7.7,26.6,2.9,35.7c4.7,4,10.6,6,16.3,6c7.2,0,14.3-3,19.3-8.9
			l28.9-34.1C279.7,173.7,278.3,157.7,267.7,148.7z M250.3,155.5c0.4,0,0.7,0,1.1,0c3,0,5.8,1,8,3l0,0c2.6,2.1,4.1,5.2,4.4,8.5
			c0.3,3.3-0.7,6.5-2.9,9l-29,34.2c-2.2,2.5-5.2,4.1-8.5,4.4c-3.3,0.3-6.6-0.8-9.1-2.9c-2.5-2.2-4.1-5.2-4.4-8.5
			c-0.3-3.3,0.8-6.6,2.9-9.1l28.9-34.1C243.9,157.3,247,155.7,250.3,155.5z"/>
		<path d="M214.3,211.7c-1.3-1.1-2.9-1.7-4.6-1.5c-1.7,0.2-3.2,0.9-4.4,2.2l-19.4,22.9c-1.1,1.3-1.7,2.9-1.5,4.6
			c0.2,1.7,0.9,3.2,2.2,4.4l0,0c1.2,1,2.7,1.5,4.1,1.5c1.8,0,3.7-0.8,4.9-2.2l19.4-22.9C217.3,218.1,217,214.1,214.3,211.7z"/>
		<path d="M497.6,394.2c-1.3-1.1-2.9-1.7-4.6-1.5c-1.7,0.2-3.2,0.9-4.4,2.2c-27.6,32.4-76.3,36.4-108.7,8.9
			c-15.7-13.3-25.2-32-26.9-52.5c-1.7-20.6,4.7-40.5,18-56.2l76.7-90.4c15.5-18.2,23-41.5,21-65.6c-2-24.1-13.1-45.8-31.4-61.2
			C418.9,62.4,395.6,55,371.6,57c-24,2-45.8,13.1-61.2,31.3l-51.7,61c-1.1,1.3-1.7,2.9-1.5,4.6c0.2,1.7,0.9,3.2,2.2,4.4
			c1.3,1.1,2.9,1.7,4.6,1.5c1.7-0.2,3.2-0.9,4.4-2.2l51.7-61c27.6-32.4,76.3-36.4,108.7-8.9c15.7,13.3,25.2,32,26.9,52.5
			c1.7,20.6-4.7,40.5-18,56.2l-76.6,90.3c-15.5,18.2-23,41.5-21,65.6c2,24.1,13.1,45.8,31.4,61.2c16.4,13.9,37.1,21.4,58.7,21.4
			c2.2,0,4.5-0.1,6.7-0.2c24.1-2,45.8-13.1,61.2-31.4C500.6,400.6,500.3,396.5,497.6,394.2z"/>
	</g>
	<path d="M328.2,204.8c-2.6-31.1-17-59.3-40.8-79.4c-23.8-20.2-54-29.8-85-27.2c-31.1,2.6-59.3,17.1-79.4,40.9L27.8,251.3
		C7.6,275-2,305.2,0.6,336.3c2.5,31.1,17,59.3,40.9,79.4c21,17.8,47.7,27.6,75.2,27.6c3.7,0,6.8-0.1,9.7-0.4
		c31.1-2.6,59.3-17.1,79.4-40.9L301,289.8C321.1,266.1,330.8,235.9,328.2,204.8z M48.9,406.7c-21.4-18.1-34.4-43.5-36.7-71.4
		c-2.3-27.9,6.4-55.1,24.6-76.5l95.1-112.3c18.1-21.4,43.5-34.4,71.4-36.7c2.7-0.3,5.6-0.4,8.8-0.4c24.8,0,48.8,8.9,67.6,25
		c44.1,37.4,49.6,103.7,12.2,147.9l-95.2,112.3c-18.1,21.4-43.5,34.4-71.4,36.7C97.5,433.6,70.3,424.9,48.9,406.7z"/>
</g>
</svg>
