<?xml version="1.0" encoding="utf-8"?>
<!-- Generator: Adobe Illustrator 27.2.0, SVG Export Plug-In . SVG Version: 6.00 Build 0)  -->
<svg version="1.1" id="Layer_1" xmlns="http://www.w3.org/2000/svg" xmlns:xlink="http://www.w3.org/1999/xlink" x="0px" y="0px"
	 viewBox="0 0 500 500" style="enable-background:new 0 0 500 500;" xml:space="preserve">
<style type="text/css">
	.st0{fill:#FFFFFF;}
</style>
<g>
	<g>
		<path class="st0" d="M260.6,480.1c-2.7,2.7-6.4,4.4-10.6,4.4c-8.3,0-15-6.7-15-15V30.4c0-8.3,6.7-15,15-15s15,6.7,15,15v439.1
			C264.9,473.7,263.3,477.4,260.6,480.1z"/>
	</g>
	<g>
		<path class="st0" d="M480.1,260.6c-5.8,5.8-15.3,5.8-21.1,0l-209-209l-209,209c-5.8,5.8-15.3,5.8-21.1,0c-5.8-5.8-5.8-15.3,0-21.1
			L239.4,19.9c5.8-5.8,15.3-5.8,21.1,0l219.6,219.6C486,245.3,486,254.7,480.1,260.6z"/>
	</g>
</g>
</svg>
