<svg id="Layer_1" data-name="Layer 1" xmlns="http://www.w3.org/2000/svg" viewBox="0 0 500 500"><defs><style>.cls-1{fill:#1d1d1b;}</style></defs><path class="cls-1" d="M500,95a213.77,213.77,0,0,1-59.06,16.19A101.89,101.89,0,0,0,486,54.5a204.76,204.76,0,0,1-65,24.81A102.5,102.5,0,0,0,243.71,149.4a105.43,105.43,0,0,0,2.38,23.38c-85.22-4.16-160.62-45-211.28-107.22a102.54,102.54,0,0,0,31.5,137A101.17,101.17,0,0,1,20,189.94v1.12a103,103,0,0,0,82.13,100.72,102.36,102.36,0,0,1-26.88,3.38,91,91,0,0,1-19.41-1.75c13.28,40.59,51,70.44,95.78,71.41A206,206,0,0,1,24.53,408.54,192.13,192.13,0,0,1,0,407.13a288.6,288.6,0,0,0,157.25,46C345.88,453.12,449,296.88,449,161.44c0-4.53-.16-8.91-.38-13.25A204.49,204.49,0,0,0,500,95Z"/></svg>