<?xml version="1.0" encoding="utf-8"?>
<!-- Generator: Adobe Illustrator 25.2.0, SVG Export Plug-In . SVG Version: 6.00 Build 0)  -->
<svg version="1.1" id="Layer_1" xmlns="http://www.w3.org/2000/svg" xmlns:xlink="http://www.w3.org/1999/xlink" x="0px" y="0px"
	 viewBox="0 0 500 500" style="enable-background:new 0 0 500 500;" xml:space="preserve">
<style type="text/css">
	.st0{fill:#FFFFFF;}
	.st1{stroke:#000000;stroke-width:10;stroke-miterlimit:10;}
</style>
<g>
	<path d="M491.98,154.79c0-13.43-5.21-25.79-14.66-34.82c-9.18-9.61-21.59-14.86-35.03-14.86h-84.17v-6.88
		c0-10.08-4.06-19.91-10.86-26.32c-7.21-7.19-16.61-11.11-26.57-11.11H179.3c-10.27,0-19.83,3.9-26.92,10.99
		c-7.09,7.09-10.99,16.48-10.99,26.44v6.88H57.7c-13.43,0-25.8,5.21-34.82,14.66c-9.46,9.46-14.85,22.21-14.85,35.02v234.72
		c0,13.43,5.21,25.8,14.66,34.82c9.46,9.46,22.21,14.86,35.02,14.86h384.59c13.44,0,25.81-5.21,34.84-14.66
		c9.46-9.47,14.85-22.22,14.85-35.02V154.79z M479.33,395.44h-0.95c-1.23,7.53-4.8,14.53-10.21,19.94
		c-6.9,6.9-16.09,10.69-25.88,10.69H57.7c-9.79,0-18.98-3.8-25.87-10.7c-6.9-6.89-10.7-16.07-10.7-25.87V154.79
		c0-9.79,3.8-18.98,10.7-25.87c6.9-6.9,16.08-10.69,25.87-10.69h90.97c3.81,0,6.79-2.98,6.79-6.79V97.76
		c0-6.74,2.46-12.91,6.92-17.38c4.47-4.47,10.64-6.93,17.4-6.93H320.7c6.76,0,12.94,2.46,17.39,6.93
		c4.46,4.45,6.92,10.63,6.92,17.38v13.67c0,3.74,3.05,6.79,6.8,6.79h90.96c9.78,0,18.97,3.8,25.87,10.69
		c6.9,6.91,10.69,16.1,10.69,25.88V395.44z"/>
	<path d="M328.34,193.81c-20.6-20.59-49.15-32.41-78.34-32.41c-29.18,0-57.74,11.81-78.34,32.41
		c-20.9,20.91-32.41,48.73-32.41,78.34c0,29.19,11.82,57.74,32.41,78.34c20.9,20.9,48.72,32.41,78.34,32.41
		c29.19,0,57.74-11.81,78.34-32.41c20.91-20.9,32.42-48.73,32.42-78.34C360.75,242.97,348.94,214.41,328.34,193.81z M317.78,340.37
		L317.78,340.37c-0.01,0.01-0.02,0.01-0.01,0.01C299.2,358.4,275.15,368.3,250,368.3c-25.17,0-49.22-9.89-67.71-27.86
		c-18.04-18.04-27.97-42.12-27.97-67.82c0-25.17,9.9-49.22,27.87-67.72c18.03-18.03,42.11-27.96,67.82-27.96
		c25.17,0,49.22,9.89,67.72,27.85c18.03,18.03,27.96,42.12,27.96,67.82C346.15,297.83,336.25,321.9,317.78,340.37z"/>
	<path d="M417.78,163.15c-8.65,0-15.68,7.03-15.68,15.68s7.04,15.68,15.68,15.68c8.64,0,15.68-7.03,15.68-15.68
		S426.43,163.15,417.78,163.15z"/>
</g>
</svg>
