<?xml version="1.0" encoding="utf-8"?>
<!-- Generator: Adobe Illustrator 26.3.1, SVG Export Plug-In . SVG Version: 6.00 Build 0)  -->
<svg version="1.1" id="Layer_1" xmlns="http://www.w3.org/2000/svg" xmlns:xlink="http://www.w3.org/1999/xlink" x="0px" y="0px"
	 viewBox="0 0 500 500" style="enable-background:new 0 0 500 500;" xml:space="preserve">
<path d="M221.8,351.1c37.6-18.1,71.7-18,114.8-17.9l5.3,0c8.9,0.5,16.8-1.2,23.6-5.1c16.9-9.8,25.1-31.7,23-61.7
	c-2-28.5-13-61.3-30.9-92.3c-17.9-31.1-40.8-57-64.5-73c-12-8.1-23.5-13.2-34.3-15.2c-11.3-2.1-22.7-0.5-30.6,4.3c0,0-0.1,0-0.1,0.1
	c-6.5,3.9-11.2,8.5-14.4,13.9c-3.3,5.5-6.4,10.9-9.5,16.1c-21.9,37.5-40.7,70-80.2,92.7l-72,41.5c-8.2,4.7-18.3,13.6-20,28.8
	c-0.3,2.2-0.3,4.7-0.2,7.9c0,0.4-0.2,0.7-0.5,0.9C3,308.8-6.4,346,10.4,375c16.3,28.2,51.3,39,79.8,24.6c0.4-0.2,0.8-0.1,1.1,0.1
	c10.3,9.3,22.1,11.2,32.4,5.2L146,392c0.2-0.1,0.3-0.1,0.5-0.1c0.2,0,0.5,0.1,0.7,0.2l72.5,63.8c8.8,8.8,19.5,13.4,30.1,12.8
	c9.4-0.5,18.5-4.7,25.7-12c6.9-7,11.3-15.9,12.3-25c1.1-10.7-2.4-20.7-9.6-27.3l-56.7-51.8c-0.2-0.2-0.4-0.6-0.3-0.9
	C221.3,351.6,221.5,351.3,221.8,351.1z M234.3,100.9c7.3-4.2,23.7-8.4,51.7,10.4c0,0,0.1,0,0.1,0.1c21.7,14.5,43.8,39.7,60.7,68.9
	c16.8,29.1,27.5,60.8,29.3,87c1.7,25-4.4,43.3-16.9,50.1c-4.4,2.4-9.3,3.6-14.7,3.6c-10.7,0-23.3-4.7-37.2-14
	c-7.7-5.1-15.8-12-24-20.2c-0.2-0.2-0.3-0.5-0.3-0.8c0-0.3,0.2-0.6,0.4-0.7c21.4-14.2,25.8-46.8,10-74.2
	c-7.9-13.6-19.6-24.1-32.9-29.3c-12.5-4.9-25.4-4.6-36.3,0.9c-0.3,0.1-0.6,0.1-0.9,0c-0.3-0.1-0.5-0.4-0.6-0.6
	c-3-10.9-4.8-21.3-5.5-30.9C215.6,126.4,221.8,108.1,234.3,100.9z M274.8,276.2c-0.2,0.1-0.3,0.2-0.5,0.2c-0.3,0-0.6-0.1-0.8-0.3
	c-9.9-11.5-18.9-24.2-26.8-37.9c-7.8-13.6-14.4-27.8-19.4-42.2c-0.2-0.5,0-1,0.5-1.2c24.4-13.1,47.5,9.4,55,22.5c0,0,0,0.1,0.1,0.1
	c6.6,11.7,9.2,23.7,7.3,34.9C288.4,262.5,283,271.1,274.8,276.2z M80.7,390c-0.1,0.3-0.3,0.6-0.6,0.7c-5.5,2.1-11.2,3.1-16.8,3.1
	c-16.9,0-33.1-9.1-42.2-24.9c-12.5-21.6-7.6-48.1,11.7-62.8c0.3-0.2,0.6-0.3,0.9-0.2c0.3,0.1,0.6,0.4,0.6,0.7
	c3.2,12,9.3,25.7,18.6,41.8c10.3,17.9,19.3,31.2,27.5,40.7C80.7,389.3,80.7,389.6,80.7,390z M144.2,378.8l-26.7,15.4
	c-2.1,1.2-4.1,1.7-6,1.7c-4.4,0-8.1-2.5-10.1-3.9c-9.8-6.8-22.8-24-37.7-49.8c-17.9-31-20.5-48.4-19.5-57.5
	c1.3-11.2,7.3-15.6,13.9-19.4l67.8-39.1c0.2-0.1,0.4-0.2,0.6-0.2l0,0c0.4,0,0.8,0.3,0.9,0.8c0,0,0,0.1,0,0.1
	c10.5,43.2,36.9,89.1,69,119.7c0.2,0.2,0.3,0.5,0.3,0.9c0,0.3-0.2,0.6-0.5,0.7C179.1,357.1,162.1,367.1,144.2,378.8z M269.4,413.3
	c4.8,4.9,6.8,10.5,6.1,17.2c-0.7,6.2-4,12.7-8.8,17.6c-3.9,3.9-9.8,8.4-16.4,8.4c-0.4,0-0.8,0-1.3-0.1c-9.4-0.8-14.9-4.2-20.9-9.4
	l-69.6-61.2c-0.2-0.2-0.4-0.5-0.3-0.8c0-0.3,0.2-0.6,0.5-0.8c16.8-10.7,32.4-19.7,47.9-27.3c0.2-0.1,0.3-0.1,0.5-0.1h0
	c0.3,0,0.6,0.1,0.8,0.3L269.4,413.3z M209.8,341.2c-0.1,0.1-0.3,0.1-0.5,0.1c-0.2,0-0.5-0.1-0.7-0.3
	c-33.9-31.5-57.7-72.3-70.7-121.3c-0.1-0.4,0.1-0.9,0.4-1.1c30.8-20.1,49.3-46.3,64.7-71.6c0.2-0.3,0.5-0.5,0.8-0.5
	c0.6,0,1,0.4,1,0.9c2.2,43.4,22.5,82.1,31.1,96.7c19.3,32.9,40.6,56.6,67,74.6c0.4,0.2,0.5,0.7,0.4,1.1s-0.5,0.7-0.9,0.7
	C269.2,320.9,240.7,324.6,209.8,341.2z"/>
<g>
	<path d="M389.6,148.4c-1.6,0.8-2.7,2.1-3.1,3.8c-0.5,1.6-0.3,3.3,0.6,4.8c0.9,1.5,2.2,2.5,3.9,2.9c1.7,0.4,3.4,0.1,4.8-0.8l55.4-32
		c3.2-1.8,3.5-5,2.9-7.1c-0.6-2.1-2.5-4.5-6-4.4l-0.3,0c-1,0.1-1.9,0.3-2.7,0.8L389.6,148.4z"/>
	<path d="M492.1,208.6l-65.9-3.5l-0.7,0c-4.1,0.2-5.9,3.2-5.9,6.2c0,2.9,1.8,6,5.9,6.2l66,3.5c1.6,0.1,3.2-0.5,4.4-1.6
		c1.2-1.1,2-2.6,2-4.3C498.1,211.7,495.5,208.8,492.1,208.6z"/>
	<path d="M383.9,34.6l-30,58.8c-1.6,3-0.3,6.8,2.7,8.3c1.5,0.7,3.1,0.9,4.7,0.4c1.6-0.5,2.8-1.6,3.6-3.1l30-58.9
		c1.1-2,1-4.3-0.2-6.2c-1.2-1.9-3.2-2.9-5.5-2.8l-0.1-1l0,0l0,1C386.9,31.3,384.9,32.6,383.9,34.6z"/>
</g>
</svg>
