<svg id="Layer_1" data-name="Layer 1" xmlns="http://www.w3.org/2000/svg" viewBox="0 0 500 500"><defs><style>.cls-1{fill:#1d1d1b;}</style></defs><path class="cls-1" d="M498.68,147c-1.17-26.56-5.47-44.83-11.62-60.66A128.1,128.1,0,0,0,413.9,13.18C398,7,379.81,2.73,353.25,1.56,326.48.29,318,0,250.1,0s-76.38.29-103,1.46S102.22,6.93,86.4,13.08A122.17,122.17,0,0,0,42.05,42,123,123,0,0,0,13.24,86.25C7.08,102.17,2.79,120.34,1.61,146.9.34,173.67.05,182.16.05,250.05S.34,326.43,1.51,353.1,7,397.93,13.14,413.76A128.08,128.08,0,0,0,86.3,486.93c15.92,6.15,34.09,10.45,60.66,11.62S182.12,500,250,500s76.38-.29,103-1.47,44.83-5.47,60.65-11.62a127.89,127.89,0,0,0,73.16-73.16c6.15-15.92,10.45-34.09,11.62-60.66s1.46-35.16,1.46-103-.08-76.37-1.25-103Zm-45,204.14c-1.08,24.42-5.18,37.61-8.6,46.4A82.94,82.94,0,0,1,397.59,445c-8.79,3.42-22.07,7.52-46.4,8.59-26.37,1.17-34.28,1.46-101,1.46s-74.72-.29-101-1.46c-24.42-1.07-37.61-5.18-46.4-8.59a76.89,76.89,0,0,1-28.71-18.66,77.85,77.85,0,0,1-18.66-28.72c-3.42-8.79-7.52-22.08-8.59-46.4-1.17-26.37-1.46-34.28-1.46-101s.29-74.72,1.46-101c1.07-24.42,5.18-37.6,8.59-46.39A76.08,76.08,0,0,1,74.19,74.12,77.73,77.73,0,0,1,102.9,55.46c8.79-3.42,22.08-7.52,46.4-8.6,26.37-1.17,34.28-1.46,101-1.46s74.72.29,101,1.46c24.42,1.08,37.61,5.18,46.4,8.6A76.89,76.89,0,0,1,426.4,74.12a77.73,77.73,0,0,1,18.66,28.72c3.42,8.79,7.52,22.07,8.6,46.39,1.17,26.37,1.46,34.28,1.46,101s-.29,74.54-1.46,100.91Z"/><path class="cls-1" d="M250.1,121.61A128.44,128.44,0,1,0,378.54,250.05,128.47,128.47,0,0,0,250.1,121.61Zm0,211.75A83.32,83.32,0,1,1,333.42,250a83.33,83.33,0,0,1-83.32,83.32Z"/><path class="cls-1" d="M413.61,116.53a30,30,0,1,1-30-30,30,30,0,0,1,30,30Z"/></svg>