<?xml version="1.0" encoding="utf-8"?>
<!-- Generator: Adobe Illustrator 25.2.0, SVG Export Plug-In . SVG Version: 6.00 Build 0)  -->
<svg version="1.1" id="Layer_1" xmlns="http://www.w3.org/2000/svg" xmlns:xlink="http://www.w3.org/1999/xlink" x="0px" y="0px"
	 viewBox="0 0 500 500" style="enable-background:new 0 0 500 500;" xml:space="preserve">
<style type="text/css">
	.st0{fill:#FFFFFF;}
	.st1{stroke:#000000;stroke-width:10;stroke-miterlimit:10;}
</style>
<g>
	<path class="st0" d="M500,250C500,111.91,388.09,0,250,0S0,111.91,0,250s111.91,250,250,250c1.46,0,2.93,0,4.39-0.1V305.37h-53.71
		v-62.6h53.71v-46.09c0-53.42,32.62-82.52,80.27-82.52c22.85,0,42.48,1.66,48.15,2.44v55.86H350c-25.88,0-30.96,12.3-30.96,30.37
		v39.85h62.01l-8.1,62.6h-53.91v185.06C423.53,460.35,500,364.16,500,250L500,250z M500,250"/>
</g>
</svg>
