<?xml version="1.0" encoding="utf-8"?>
<!-- Generator: Adobe Illustrator 25.2.0, SVG Export Plug-In . SVG Version: 6.00 Build 0)  -->
<svg version="1.1" id="Layer_1" xmlns="http://www.w3.org/2000/svg" xmlns:xlink="http://www.w3.org/1999/xlink" x="0px" y="0px"
	 viewBox="0 0 500 500" style="enable-background:new 0 0 500 500;" xml:space="preserve">
<style type="text/css">
	.st0{fill:#FFFFFF;}
	.st1{stroke:#000000;stroke-width:10;stroke-miterlimit:10;}
</style>
<path class="st0" d="M256.8,0C119.74,0.02,46.88,87.84,46.88,183.59c0,44.4,24.81,99.79,64.54,117.36
	c11.34,5.1,9.84-1.12,19.59-38.42c0.77-3.11,0.37-5.79-2.13-8.69C72.09,188.15,117.8,53.11,248.7,53.11
	c189.44,0,154.05,262.13,32.96,262.13c-31.21,0-54.46-24.5-47.1-54.82c8.92-36.1,26.37-74.92,26.37-100.94
	c0-65.58-97.71-55.85-97.71,31.04c0,26.86,9.5,44.98,9.5,44.98s-31.44,127-37.27,150.73c-9.87,40.17,1.33,105.19,2.31,110.79
	c0.61,3.08,4.06,4.06,6,1.52c3.11-4.06,41.11-58.27,51.75-97.46c3.88-14.27,19.77-72.18,19.77-72.18
	c10.48,18.92,40.69,34.75,72.88,34.75c95.75,0,164.96-84.17,164.96-188.61C452.78,74.92,367.1,0,256.8,0L256.8,0z M256.8,0"/>
</svg>
