<?xml version="1.0" encoding="utf-8"?>
<!-- Generator: Adobe Illustrator 25.2.0, SVG Export Plug-In . SVG Version: 6.00 Build 0)  -->
<svg version="1.1" id="Layer_1" xmlns="http://www.w3.org/2000/svg" xmlns:xlink="http://www.w3.org/1999/xlink" x="0px" y="0px"
	 viewBox="0 0 500 500" style="enable-background:new 0 0 500 500;" xml:space="preserve">
<style type="text/css">
	.st0{fill:#FFFFFF;}
	.st1{stroke:#000000;stroke-width:10;stroke-miterlimit:10;}
</style>
<path d="M476.42,387.23l-80.11-80.11l-0.44-0.17l-0.1-0.39l-76.85-76.83l122.92-122.93c-0.02-0.02,0.06-0.14,0.15-0.26
	c0.3-0.34,0.54-0.7,0.78-1.15l0.56-1.05l19.99-60.45c0-0.26,0.02-0.46,0.07-0.67c0.09-0.4,0.13-0.76,0.13-1.12
	c0-0.33-0.04-0.69-0.14-1.15c-0.04-0.16-0.06-0.37-0.06-0.58c-0.01-0.01-0.13-0.19-0.22-0.42c-0.12-0.29-0.3-0.58-0.57-0.98
	c-0.27-0.4-0.44-0.65-0.61-0.82c-0.26-0.26-0.54-0.43-0.83-0.63c-0.34-0.23-0.66-0.44-1.03-0.6l-0.45-0.25
	c-0.14,0.03-0.34,0.02-0.55-0.02c-0.93-0.21-1.55-0.15-2.27-0.01c-0.17,0.04-0.37,0.05-0.58,0.06L395.21,56.9
	c-0.92,0.31-1.8,0.92-2.49,1.77L270.29,181.11L112.79,23.61c-1.07-1.08-2.5-1.67-4.02-1.67c0,0,0,0,0,0c-1.52,0-2.95,0.59-4.03,1.67
	l-81.17,81.16c-1.08,1.08-1.67,2.51-1.67,4.03c0,1.52,0.59,2.95,1.67,4.02l157.49,157.49L39.96,411.45
	c-4.92,4.95-4.91,13.1,0.1,18.09l30.43,30.43c2.43,2.43,5.66,3.76,9.1,3.76s6.67-1.34,9.1-3.76l141.04-141.03l157.5,157.5
	c2.14,2.16,5.89,2.16,8.04,0.01l81.17-81.16c1.08-1.08,1.67-2.51,1.67-4.03C478.09,389.74,477.49,388.31,476.42,387.23z
	 M402.73,66.37l46.23-15.3l-15.24,46.02h-30.99V66.37z M35.65,108.8l73.12-73.12l11.43,11.43l-6.12,6.12
	c-1.08,1.08-1.67,2.51-1.67,4.03c0,1.52,0.59,2.95,1.67,4.02c2.14,2.15,5.9,2.15,8.05,0l6.12-6.12l12.24,12.24l-16.27,16.28
	c-2.22,2.22-2.22,5.83,0,8.05c2.15,2.15,5.89,2.15,8.05,0l16.27-16.28l12.26,12.26l-6.13,6.12c-1.08,1.08-1.67,2.5-1.67,4.02
	c0,1.52,0.59,2.95,1.67,4.03c2.15,2.15,5.89,2.15,8.05,0l6.13-6.12l12.24,12.24l-16.28,16.28c-2.22,2.22-2.22,5.83,0,8.05
	c2.16,2.15,5.9,2.15,8.05,0l16.28-16.28l12.24,12.24l-6.12,6.12c-1.08,1.08-1.67,2.51-1.67,4.03c0,1.52,0.6,2.94,1.67,4.02
	c2.16,2.16,5.9,2.15,8.05,0l6.12-6.12l12.24,12.24l-16.28,16.28c-1.08,1.08-1.67,2.51-1.67,4.03c0,1.52,0.59,2.95,1.67,4.02
	c2.14,2.15,5.9,2.15,8.05,0l16.28-16.28l12.24,12.24l-6.12,6.12c-1.08,1.08-1.67,2.51-1.67,4.02c0,1.52,0.59,2.95,1.67,4.02
	c2.14,2.15,5.89,2.15,8.05,0l6.13-6.11l12.24,12.24l-73.12,73.12L35.65,108.8z M79.58,452.98l-32.94-32.94l1.61-0.81l34.28-34.28
	l32.53,32.54L79.58,452.98z M123.12,409.44l-32.53-32.54l32.55-32.54l32.53,32.53L123.12,409.44z M163.72,368.85l-32.53-32.53
	L391.36,76.13v26.64c0,3.14,2.55,5.69,5.69,5.69h27.05L163.72,368.85z M391.23,464.37L237.75,310.9l73.12-73.12l12.25,12.25
	l-6.13,6.12c-1.08,1.07-1.67,2.5-1.67,4.02c0,1.52,0.59,2.95,1.67,4.03c2.14,2.14,5.88,2.15,8.05,0l6.12-6.12l12.24,12.24
	l-16.28,16.28c-2.22,2.22-2.22,5.83,0,8.05c2.16,2.15,5.9,2.15,8.05,0l16.28-16.28l12.24,12.24l-6.12,6.12
	c-1.08,1.08-1.67,2.5-1.67,4.02c0,1.52,0.59,2.95,1.67,4.02c2.15,2.16,5.89,2.16,8.05,0l6.12-6.11l12.24,12.24l-16.28,16.28
	c-2.22,2.22-2.22,5.83,0,8.05c2.16,2.15,5.91,2.15,8.05,0l16.28-16.28l12.24,12.24l-6.12,6.14c-2.21,2.22-2.21,5.84,0,8.06
	c2.15,2.14,5.91,2.13,8.06-0.01l6.12-6.12l12.23,12.24l-16.28,16.27c-1.08,1.07-1.67,2.5-1.67,4.02c0,1.52,0.59,2.95,1.67,4.03
	c2.15,2.15,5.88,2.15,8.05,0l16.28-16.27l12.25,12.25l-6.13,6.12c-1.08,1.08-1.67,2.5-1.67,4.02c0,1.52,0.59,2.95,1.67,4.03
	c2.15,2.15,5.88,2.15,8.05,0l6.12-6.12l11.43,11.43L391.23,464.37z"/>
</svg>
