<svg id="Layer_1" data-name="Layer 1" xmlns="http://www.w3.org/2000/svg" viewBox="0 0 500 500"><defs><style>.cls-1{fill:#1d1d1b;}</style></defs><path class="cls-1" d="M256.8,0C119.74,0,46.88,87.84,46.88,183.59c0,44.4,24.81,99.79,64.54,117.36,11.34,5.1,9.84-1.12,19.59-38.42a8.86,8.86,0,0,0-2.13-8.69C72.09,188.15,117.8,53.11,248.7,53.11c189.44,0,154.05,262.13,33,262.13-31.21,0-54.46-24.5-47.1-54.82,8.92-36.1,26.37-74.92,26.37-100.94,0-65.58-97.71-55.85-97.71,31,0,26.86,9.5,45,9.5,45s-31.44,127-37.27,150.73c-9.87,40.17,1.33,105.19,2.31,110.79.61,3.08,4.06,4.06,6,1.52,3.11-4.06,41.11-58.27,51.75-97.46,3.88-14.27,19.77-72.18,19.77-72.18,10.48,18.92,40.69,34.75,72.88,34.75,95.75,0,165-84.17,165-188.61C452.78,74.92,367.1,0,256.8,0Z"/></svg>