<?xml version="1.0" encoding="UTF-8"?><svg id="Layer_1" xmlns="http://www.w3.org/2000/svg" viewBox="0 0 500 500"><path d="M207.14,357.67l61.63,56.33c4.91,4.94,6.42,10.4,5.77,16.37-.66,6-3.82,12.29-8.5,17-4.68,4.74-10.71,8.6-16.9,8.07-9.49-.76-14.83-4.35-20.29-9.19l-69.6-61.24c14.62-9.36,30.57-18.75,47.9-27.34h0Zm-173.79-50.86c3.09,11.59,9.02,25.27,18.74,42.09,10.61,18.41,19.56,31.52,27.6,40.81-21.17,8.1-45.66-.36-57.77-21.35-12.35-21.37-7.01-47.43,11.43-61.55h0Zm93.19-79.78c10.61,43.77,37.03,89.5,69.31,120.36-19.11,9.78-36.56,20.32-52.18,30.6l-26.68,15.41c-5.9,3.39-11.01,.56-15.08-2.23-8.37-5.8-20.72-20.56-37.39-49.45-16.56-28.65-20.48-46.51-19.33-56.89,1.16-10.34,6.46-14.62,13.44-18.68l67.92-39.12Zm155.41-9.33c13.79,24.18,8.04,47.79-7.65,57.68-9.49-11.01-18.57-23.65-26.74-37.77-8.16-14.13-14.55-28.36-19.33-42.07,22.88-12.29,45.68,8.04,53.72,22.17h0Zm-78.03-70.13c1.81,35.87,16.17,71.61,31.22,97.17,19.66,33.4,41.44,57.22,67.32,74.88-31.3,.3-61.14,3.49-93.12,20.72-37.88-35.15-59.12-78.19-70.42-120.79,29.82-19.43,48.36-44.56,65-71.97Zm81.65-35.37c20.72,13.9,42.76,38.04,60.41,68.58,17.63,30.56,27.44,61.7,29.19,86.6,1.72,24.94-4.58,42.68-16.4,49.18-16.8,9.16-37.81-1.68-50.79-10.38-7.91-5.27-15.91-12.09-23.88-20.12,22.39-14.89,26.05-48.19,10.3-75.49-8.14-14.1-20.29-24.57-33.44-29.75-12.32-4.81-25.45-4.91-37.12,.89-2.97-10.87-4.81-21.25-5.46-30.7-1.75-24.9,4.51-42.36,16.4-49.21,15.82-9.1,36.87,1.04,50.79,10.41h0Zm-57.94-22.83c-6.58,3.98-11.49,8.66-14.88,14.36-26.26,44.1-44.5,82.67-89.27,108.5l-72,41.51c-8.8,5.07-18.82,14.12-20.52,29.52-.3,2.53-.3,5.24-.17,8.04-28.92,17.03-38.33,54.65-21.27,84.23,16.6,28.76,52.31,39.57,81.1,24.97,10.22,9.23,22.56,11.69,33.57,5.34l22.36-12.95,72.5,63.83c9.49,9.49,20.55,13.6,30.86,13.05,10.3-.53,19.5-5.37,26.32-12.25,6.85-6.89,11.53-15.91,12.58-25.59,1.02-9.66-1.58-20.49-9.92-28.1l-56.69-51.79c38.93-18.78,74.78-17.89,119.63-17.78,8.6,.49,16.77-1.06,24.08-5.27,18.74-10.85,25.45-34.85,23.52-62.62-1.95-27.77-12.45-60.58-31.03-92.76-18.57-32.18-41.73-57.71-64.82-73.29-11.53-7.77-23.36-13.27-34.63-15.38-10.76-1.98-22.79-.74-31.32,4.44h0Z"/><path d="M447.66,114.64c-1.12,.06-2.21,.39-3.19,.98l-55.37,31.95c-3.63,1.88-4.98,6.42-2.93,9.97,2.04,3.56,6.62,4.68,10.07,2.47l55.38-31.98c6.63-3.75,3.62-13.86-3.95-13.4h0Z"/><path d="M425.53,204.18c-9.19,.33-9.26,13.96-.07,14.33l65.98,3.46c3.95,.23,7.34-2.83,7.54-6.79,.19-3.95-2.83-7.34-6.79-7.54l-65.9-3.46h-.76Z"/><path d="M389.15,30.19c-2.63,.13-4.96,1.64-6.12,4.02l-29.98,58.82c-1.81,3.52-.4,7.84,3.13,9.66,3.52,1.8,7.87,.4,9.66-3.13l29.98-58.87c2.6-4.91-1.12-10.77-6.66-10.5h0Z"/></svg>