<?xml version="1.0" encoding="utf-8"?>
<!-- Generator: Adobe Illustrator 25.2.0, SVG Export Plug-In . SVG Version: 6.00 Build 0)  -->
<svg version="1.1" id="Layer_1" xmlns="http://www.w3.org/2000/svg" xmlns:xlink="http://www.w3.org/1999/xlink" x="0px" y="0px"
	 viewBox="0 0 500 500" style="enable-background:new 0 0 500 500;" xml:space="preserve">
<style type="text/css">
	.st0{fill:#FFFFFF;}
	.st1{stroke:#000000;stroke-width:10;stroke-miterlimit:10;}
</style>
<g>
	<path d="M150.59,290.65c0,2.01,0.87,3.9,2.4,5.2l46.59,39.68c1.24,1.05,2.81,1.63,4.42,1.63c2.01,0,3.9-0.88,5.21-2.41
		c1.18-1.39,1.75-3.15,1.61-4.97c-0.15-1.82-0.99-3.47-2.38-4.66l-40.48-34.48l0.33-0.28l40.15-34.2c1.39-1.18,2.24-2.83,2.38-4.65
		c0.14-1.82-0.43-3.59-1.61-4.98c-1.35-1.58-3.27-2.4-5.2-2.4c-1.57,0-3.14,0.53-4.42,1.63l-46.59,39.68
		C151.47,286.75,150.59,288.65,150.59,290.65z"/>
	<path d="M295.99,337.16c1.62,0,3.19-0.58,4.42-1.63l46.6-39.68c1.53-1.3,2.4-3.2,2.4-5.2c0-2-0.87-3.9-2.4-5.2l-46.6-39.68
		c-1.24-1.06-2.79-1.63-4.41-1.63c-0.18,0-0.37,0.01-0.55,0.02c-1.82,0.14-3.47,0.99-4.66,2.38c-1.18,1.39-1.75,3.16-1.61,4.98
		c0.14,1.82,0.99,3.47,2.38,4.65l40.48,34.48l-0.33,0.28l-40.15,34.19c-1.39,1.18-2.23,2.84-2.38,4.66
		c-0.15,1.82,0.43,3.58,1.61,4.97C292.09,336.28,293.98,337.16,295.99,337.16z"/>
	<path d="M240.18,361.49l29.04-137.88c0.38-1.79,0.03-3.61-0.96-5.14c-1-1.53-2.53-2.58-4.31-2.95c-0.47-0.1-0.94-0.15-1.41-0.15
		c-3.16,0-6,2.21-6.68,5.42l-29.04,137.88c-0.78,3.69,1.59,7.31,5.27,8.09C235.84,367.54,239.42,365.09,240.18,361.49z"/>
	<path d="M419.73,57.97H80.27c-26.45,0-47.98,21.52-47.98,47.98v288.11c0,26.45,21.52,47.98,47.98,47.98h339.46
		c26.45,0,47.98-21.52,47.98-47.98V105.94C467.71,79.49,446.19,57.97,419.73,57.97z M454.05,394.06c0,18.92-15.39,34.32-34.31,34.32
		H80.27c-18.92,0-34.32-15.4-34.32-34.32V105.94c0-18.92,15.4-34.32,34.32-34.32h339.46c18.92,0,34.31,15.39,34.31,34.32V394.06z"/>
	<path d="M460.88,158.87H39.12c-3.77,0-6.83,3.06-6.83,6.83c0,3.76,3.06,6.83,6.83,6.83h421.75c3.76,0,6.83-3.06,6.83-6.83
		C467.71,161.93,464.64,158.87,460.88,158.87z"/>
	<path d="M154.95,93.24c-12.36,0-22.42,10.06-22.42,22.42c0,12.36,10.06,22.42,22.42,22.42c12.36,0,22.42-10.06,22.42-22.42
		C177.37,103.29,167.31,93.24,154.95,93.24z M154.95,124.41c-4.83,0-8.76-3.93-8.76-8.76c0-4.83,3.93-8.76,8.76-8.76
		s8.76,3.93,8.76,8.76C163.71,120.48,159.78,124.41,154.95,124.41z"/>
	<path d="M84.94,93.02c-12.36,0-22.42,10.06-22.42,22.42c0,12.36,10.05,22.42,22.42,22.42s22.42-10.06,22.42-22.42
		C107.36,103.07,97.3,93.02,84.94,93.02z M84.94,124.19c-4.83,0-8.75-3.93-8.75-8.76c0-4.83,3.93-8.76,8.75-8.76
		s8.76,3.93,8.76,8.76C93.7,120.26,89.77,124.19,84.94,124.19z"/>
	<path d="M224.97,93.46c-12.36,0-22.41,10.05-22.41,22.41c0,12.36,10.05,22.42,22.41,22.42c12.36,0,22.42-10.06,22.42-22.42
		C247.38,103.51,237.33,93.46,224.97,93.46z M224.97,124.63c-4.82,0-8.75-3.93-8.75-8.76c0-4.83,3.93-8.76,8.75-8.76
		c4.83,0,8.76,3.93,8.76,8.76C233.72,120.7,229.79,124.63,224.97,124.63z"/>
</g>
</svg>
