<?xml version="1.0" encoding="utf-8"?>
<!-- Generator: Adobe Illustrator 27.2.0, SVG Export Plug-In . SVG Version: 6.00 Build 0)  -->
<svg version="1.1" id="Layer_1" xmlns="http://www.w3.org/2000/svg" xmlns:xlink="http://www.w3.org/1999/xlink" x="0px" y="0px"
	 viewBox="0 0 500 500" style="enable-background:new 0 0 500 500;" xml:space="preserve">
<style type="text/css">
	.st0{fill:#FFFFFF;}
</style>
<g>
	<g>
		<path class="st0" d="M46.5,473.1c-5,0-10-1.9-13.9-5.7c-7.7-7.7-7.7-20.1,0-27.8l407-407c7.7-7.7,20.1-7.7,27.8,0s7.7,20.1,0,27.8
			l-407,407C56.5,471.2,51.5,473.1,46.5,473.1z"/>
	</g>
	<g>
		<path class="st0" d="M453.5,473.1c-10.8,0-19.6-8.8-19.6-19.6V66.1H46.5c-10.8,0-19.6-8.8-19.6-19.6s8.8-19.6,19.6-19.6h407
			c10.8,0,19.6,8.8,19.6,19.6v407C473.1,464.3,464.3,473.1,453.5,473.1z"/>
	</g>
</g>
</svg>
