<?xml version="1.0" encoding="utf-8"?>
<!-- Generator: Adobe Illustrator 27.2.0, SVG Export Plug-In . SVG Version: 6.00 Build 0)  -->
<svg version="1.1" id="Layer_1" xmlns="http://www.w3.org/2000/svg" xmlns:xlink="http://www.w3.org/1999/xlink" x="0px" y="0px"
	 viewBox="0 0 500 500" style="enable-background:new 0 0 500 500;" xml:space="preserve">
<style type="text/css">
	.st0{fill:#FFFFFF;}
</style>
<path class="st0" d="M481.1,238.5L263,20.3c-3-3.9-7.7-6.4-13-6.4c-5.1,0-9.7,2.3-12.7,6L18.8,238.5c-6.4,6.4-6.4,16.8,0,23.2
	c6.4,6.4,16.8,6.4,23.2,0L233.5,70.3v399.3c0,9.1,7.4,16.5,16.5,16.5c4.4,0,8.5-1.7,11.7-4.8c3-3,4.7-7.1,4.8-11.7V70.3l191.4,191.4
	c3.2,3.2,7.4,4.8,11.6,4.8s8.4-1.6,11.6-4.8c3.2-3.2,4.9-7.3,4.9-11.7C486,245.6,484.2,241.6,481.1,238.5z"/>
</svg>
