<?xml version="1.0" encoding="utf-8"?>
<!-- Generator: Adobe Illustrator 25.2.0, SVG Export Plug-In . SVG Version: 6.00 Build 0)  -->
<svg version="1.1" id="Layer_1" xmlns="http://www.w3.org/2000/svg" xmlns:xlink="http://www.w3.org/1999/xlink" x="0px" y="0px"
	 viewBox="0 0 500 500" style="enable-background:new 0 0 500 500;" xml:space="preserve">
<style type="text/css">
	.st0{fill:#FFFFFF;}
	.st1{stroke:#000000;stroke-width:10;stroke-miterlimit:10;}
</style>
<g>
	<path d="M33.4,96.48v237.79c0,3.59,2.92,6.51,6.51,6.51h417.96c3.59,0,6.52-2.92,6.52-6.51V96.48c0-1.82-0.19-3.68-0.56-5.54
		c-0.11,0.13-0.23,0.26-0.34,0.39c-0.36,0.4-0.72,0.81-1.08,1.2c-1.54,1.65-3.21,3.23-4.83,4.75c-2.12,2-4.3,4.06-6.22,6.31v224.16
		H46.44V96.48c0-8.33,6.78-15.11,15.11-15.11h310.08c3.27-4.31,6.74-8.35,10.9-13.04H61.54C46.02,68.33,33.4,80.96,33.4,96.48z"/>
	<path d="M457.87,327.75H39.91c-3.59,0-6.51,2.92-6.51,6.51v36.02c0,15.52,12.62,28.15,28.14,28.15h374.71
		c15.52,0,28.14-12.63,28.14-28.15v-36.02C464.39,330.68,461.47,327.75,457.87,327.75z M451.35,370.29c0,8.33-6.78,15.11-15.1,15.11
		H61.54c-8.33,0-15.11-6.78-15.11-15.11v-29.51h404.92V370.29z"/>
	<path d="M342.57,443.05H155.22c-11.54,0-20.93,9.39-20.93,20.93c0,11.54,9.39,20.93,20.93,20.93h187.36
		c11.54,0,20.93-9.39,20.93-20.93C363.51,452.44,354.12,443.05,342.57,443.05z M342.57,471.87H155.22c-4.35,0-7.9-3.54-7.9-7.9
		c0-4.35,3.54-7.89,7.9-7.89h187.36c4.35,0,7.9,3.54,7.9,7.89C350.47,468.33,346.93,471.87,342.57,471.87z"/>
	<path d="M328.16,443.05c-24.37,0-36.72-17.2-36.72-51.13c0-3.59-2.92-6.52-6.51-6.52h-72.06c-3.59,0-6.52,2.92-6.52,6.52
		c0,33.93-12.35,51.13-36.72,51.13c-3.6,0-6.52,2.92-6.52,6.52c0,3.59,2.93,6.51,6.52,6.51h158.53c3.6,0,6.52-2.92,6.52-6.51
		C334.68,445.97,331.76,443.05,328.16,443.05z M203.18,443.05l1.04-1.15c8.89-9.85,13.93-24.25,14.97-42.81l0.04-0.65h59.35
		l0.04,0.65c1.03,18.55,6.07,32.96,14.97,42.81l1.04,1.15H203.18z"/>
	<path d="M483.05,47.02l-25.66-25.66c-4.19-4.2-9.78-6.51-15.73-6.51c-5.94,0-11.53,2.31-15.73,6.52l-12.93,12.96L400.39,46.9
		l-77.04,77.02c-3.56,3.56-10.55,17.29-11.95,21.32l-16.61,47.67c-1.64,4.72-0.45,9.96,3.08,13.5c2.49,2.49,5.82,3.83,9.23,3.83
		c1.43,0,2.87-0.23,4.26-0.72l47.75-16.54c4.03-1.4,18.82-9.38,21.37-11.93L457.49,104l12.61-12.62l12.93-12.92
		C491.69,69.78,491.69,55.69,483.05,47.02z M307.09,197.19l18.01-51.88l34.77,34.77L307.09,197.19z M371.26,171.83L358.2,158.8
		l-12.61-12.61l-13.03-13.06l77.04-77.02l13.03,13.02l12.61,12.61l13.02,13.03L371.26,171.83z M473.82,69.23l-15.94,16.19
		l-38.65-38.64l15.93-16.21c1.72-1.73,4.07-2.7,6.5-2.7c2.44,0,4.79,0.97,6.51,2.7l25.65,25.65
		C477.4,59.82,477.4,65.64,473.82,69.23z"/>
	<path d="M244.58,106.2H93.49c-10.2,0-18.5,8.3-18.5,18.5v50.37c0,10.2,8.3,18.5,18.5,18.5h151.09c10.2,0,18.5-8.3,18.5-18.5V124.7
		C263.08,114.5,254.78,106.2,244.58,106.2z M251.26,175.07c0,3.68-3,6.68-6.69,6.68H93.49c-3.69,0-6.69-3-6.69-6.68V124.7
		c0-3.68,3-6.68,6.69-6.68h120v19.27c0,10.2,8.3,18.5,18.5,18.5h19.27V175.07z M251.26,143.97h-19.27c-3.69,0-6.69-3-6.69-6.68
		v-19.27h19.27c3.69,0,6.69,3,6.69,6.68V143.97z"/>
	<path d="M175.33,211.37H93.49c-6.73,0-12.21,5.47-12.21,12.2v75.55c0,6.73,5.48,12.21,12.21,12.21h81.84
		c6.73,0,12.21-5.47,12.21-12.21v-75.55C187.53,216.84,182.06,211.37,175.33,211.37z M175.72,299.5H93.1v-13.37h82.61V299.5z
		 M175.72,274.33H93.1v-51.14h82.61V274.33z"/>
	<path d="M143.47,248.76c0-1.58-0.61-3.06-1.73-4.18l-6.3-6.3c-2.3-2.22-6.01-2.18-8.27,0.08c-2.27,2.26-2.3,5.98-0.08,8.28
		l2.11,2.11l-2.12,2.12c-1.12,1.12-1.73,2.6-1.73,4.18c0,1.58,0.61,3.06,1.73,4.18c2.31,2.3,6.05,2.3,8.36,0l6.29-6.3
		C142.85,251.82,143.47,250.33,143.47,248.76z"/>
	<path d="M401.82,220.63H207.96c-3.9,0-7.06,2.65-7.06,5.91c0,3.26,3.17,5.91,7.06,5.91h193.85c3.9,0,7.07-2.65,7.07-5.91
		C408.89,223.27,405.72,220.63,401.82,220.63z"/>
	<path d="M364.7,244.33H209.15c-4.55,0-8.25,2.65-8.25,5.91s3.7,5.91,8.25,5.91H364.7c4.55,0,8.26-2.65,8.26-5.91
		S369.26,244.33,364.7,244.33z"/>
	<path d="M424.29,269.51H253.57c-4.74,0-8.6,2.65-8.6,5.91c0,3.26,3.86,5.91,8.6,5.91h170.72c4.74,0,8.6-2.65,8.6-5.91
		C432.89,272.16,429.03,269.51,424.29,269.51z"/>
	<path d="M302.06,294.69h-94.3c-3.78,0-6.87,2.65-6.87,5.91c0,3.26,3.08,5.91,6.87,5.91h94.3c3.79,0,6.87-2.65,6.87-5.91
		C308.93,297.34,305.85,294.69,302.06,294.69z"/>
</g>
</svg>
