<?xml version="1.0" encoding="utf-8"?>
<!-- Generator: Adobe Illustrator 25.2.0, SVG Export Plug-In . SVG Version: 6.00 Build 0)  -->
<svg version="1.1" id="Layer_1" xmlns="http://www.w3.org/2000/svg" xmlns:xlink="http://www.w3.org/1999/xlink" x="0px" y="0px"
	 viewBox="0 0 500 500" style="enable-background:new 0 0 500 500;" xml:space="preserve">
<style type="text/css">
	.st0{fill:#FFFFFF;}
	.st1{stroke:#000000;stroke-width:10;stroke-miterlimit:10;}
</style>
<g>
	<path class="st0" d="M498.68,147c-1.17-26.56-5.47-44.83-11.62-60.66c-6.35-16.8-16.11-31.84-28.91-44.34
		c-12.51-12.7-27.65-22.57-44.25-28.82c-15.92-6.15-34.09-10.45-60.65-11.62C326.48,0.29,317.98,0,250.1,0
		c-67.89,0-76.38,0.29-103.05,1.46c-26.57,1.17-44.83,5.47-60.65,11.62C69.59,19.44,54.55,29.21,42.05,42
		c-12.7,12.5-22.56,27.64-28.81,44.25C7.08,102.17,2.79,120.34,1.61,146.9c-1.27,26.77-1.56,35.26-1.56,103.15
		c0,67.88,0.29,76.38,1.46,103.05c1.17,26.57,5.47,44.83,11.63,60.66c6.35,16.8,16.21,31.84,28.91,44.35
		c12.51,12.7,27.65,22.57,44.25,28.82c15.92,6.15,34.09,10.45,60.66,11.62C173.62,499.71,182.12,500,250,500
		c67.88,0,76.38-0.29,103.04-1.47c26.57-1.17,44.83-5.47,60.65-11.62c33.6-12.99,60.17-39.56,73.16-73.16
		c6.15-15.92,10.45-34.09,11.62-60.66c1.17-26.66,1.46-35.16,1.46-103.05C499.95,182.16,499.85,173.67,498.68,147L498.68,147z
		 M453.66,351.14c-1.08,24.42-5.18,37.61-8.6,46.4c-8.4,21.78-25.69,39.07-47.47,47.47c-8.79,3.42-22.07,7.52-46.4,8.59
		c-26.37,1.17-34.28,1.46-100.99,1.46c-66.72,0-74.72-0.29-101-1.46c-24.42-1.07-37.61-5.18-46.4-8.59
		c-10.84-4.01-20.7-10.35-28.71-18.66c-8.3-8.11-14.65-17.88-18.66-28.72c-3.42-8.79-7.52-22.08-8.59-46.4
		c-1.17-26.37-1.46-34.28-1.46-101c0-66.72,0.29-74.72,1.46-101c1.07-24.42,5.18-37.6,8.59-46.39
		c4.01-10.84,10.36-20.71,18.76-28.72c8.1-8.3,17.87-14.65,28.71-18.66c8.79-3.42,22.08-7.52,46.4-8.6
		c26.37-1.17,34.28-1.46,100.99-1.46c66.82,0,74.72,0.29,101,1.46c24.42,1.08,37.61,5.18,46.4,8.6
		c10.84,4.01,20.7,10.35,28.71,18.66c8.31,8.11,14.65,17.88,18.66,28.72c3.42,8.79,7.52,22.07,8.6,46.39
		c1.17,26.37,1.46,34.28,1.46,101C455.12,316.96,454.83,324.77,453.66,351.14L453.66,351.14z M453.66,351.14"/>
	<path class="st0" d="M250.1,121.61c-70.91,0-128.44,57.53-128.44,128.44c0,70.91,57.53,128.44,128.44,128.44
		c70.91,0,128.44-57.53,128.44-128.44C378.54,179.13,321.01,121.61,250.1,121.61L250.1,121.61z M250.1,333.36
		c-46,0-83.32-37.31-83.32-83.32c0-46.01,37.32-83.32,83.32-83.32c46,0,83.32,37.31,83.32,83.32
		C333.42,296.06,296.1,333.36,250.1,333.36L250.1,333.36z M250.1,333.36"/>
	<path class="st0" d="M413.61,116.53c0,16.56-13.43,29.98-29.99,29.98c-16.56,0-29.98-13.42-29.98-29.98
		c0-16.56,13.43-29.99,29.98-29.99C400.18,86.54,413.61,99.96,413.61,116.53L413.61,116.53z M413.61,116.53"/>
</g>
</svg>
