<?xml version="1.0" encoding="utf-8"?>
<!-- Generator: Adobe Illustrator 25.2.0, SVG Export Plug-In . SVG Version: 6.00 Build 0)  -->
<svg version="1.1" id="Layer_1" xmlns="http://www.w3.org/2000/svg" xmlns:xlink="http://www.w3.org/1999/xlink" x="0px" y="0px"
	 viewBox="0 0 500 500" style="enable-background:new 0 0 500 500;" xml:space="preserve">
<style type="text/css">
	.st0{fill:#FFFFFF;}
	.st1{stroke:#000000;stroke-width:10;stroke-miterlimit:10;}
</style>
<g>
	<path d="M108.71,432c22.42-0.02,40.69-18.29,40.71-40.71c0-16.53-9.86-31.29-25.13-37.61c-15.27-6.33-32.69-2.86-44.37,8.82
		c-11.69,11.68-15.15,29.1-8.83,44.37C77.41,422.14,92.18,432,108.71,432z M80.09,391.29c0-11.62,6.93-22,17.66-26.44
		c3.56-1.48,7.29-2.2,10.98-2.2c7.43,0,14.72,2.91,20.21,8.4c8.22,8.21,10.65,20.46,6.2,31.19c-4.45,10.73-14.83,17.67-26.44,17.67
		C92.95,419.89,80.11,407.05,80.09,391.29z"/>
	<path d="M451.9,324.63H269.64l128.88-128.89c1.14-1.14,1.78-2.66,1.78-4.27c0-1.62-0.63-3.14-1.77-4.28l-85.72-85.71
		c-1.14-1.14-2.66-1.77-4.28-1.77c0,0,0,0-0.01,0c-1.61,0-3.13,0.63-4.27,1.77L175.37,230.36V48.1c0-3.33-2.71-6.05-6.05-6.05H48.1
		c-3.33,0-6.05,2.71-6.05,6.05v343.2c0.04,36.71,29.94,66.62,66.66,66.66h343.2c3.33,0,6.05-2.71,6.05-6.05V330.68
		C457.95,327.35,455.24,324.63,451.9,324.63z M174.36,402.8c0.6-3.8,0.94-7.67,1-11.51V247.47L308.52,114.3l77.18,77.18
		L174.36,402.8z M445.86,336.73v109.13H147.02c3.14-2.22,6.1-4.72,8.81-7.43l101.71-101.7H445.86z M163.27,391.3
		c0.12,14.02-6.26,28.71-17.06,39.28c-10.11,9.9-22.87,15.3-36.09,15.3c-0.47,0-0.94-0.01-1.42-0.02
		c-30.05-0.03-54.53-24.51-54.56-54.57V54.14h109.13V391.3z"/>
</g>
</svg>
