<svg id="Layer_1" data-name="Layer 1" xmlns="http://www.w3.org/2000/svg" viewBox="0 0 500 500"><defs><style>.cls-1{fill:#1d1d1b;}</style></defs><path class="cls-1" d="M499.87,500v0H500V316.6c0-89.71-19.31-158.81-124.19-158.81-50.42,0-84.25,27.67-98.06,53.89h-1.46V166.16H176.85V500H280.4V334.69c0-43.52,8.25-85.6,62.14-85.6,53.11,0,53.9,49.67,53.9,88.39V500Z"/><rect class="cls-1" x="8.25" y="166.19" width="103.67" height="333.81"/><path class="cls-1" d="M60,0A60.06,60.06,0,0,0,0,60c0,33.14,26.9,60.6,60,60.6s60-27.46,60-60.6A60.08,60.08,0,0,0,60,0Z"/></svg>