<?xml version="1.0" encoding="utf-8"?>
<!-- Generator: Adobe Illustrator 25.2.0, SVG Export Plug-In . SVG Version: 6.00 Build 0)  -->
<svg version="1.1" id="Layer_1" xmlns="http://www.w3.org/2000/svg" xmlns:xlink="http://www.w3.org/1999/xlink" x="0px" y="0px"
	 viewBox="0 0 500 500" style="enable-background:new 0 0 500 500;" xml:space="preserve">
<style type="text/css">
	.st0{fill:#FFFFFF;}
	.st1{stroke:#000000;stroke-width:10;stroke-miterlimit:10;}
</style>
<g>
	<path class="st0" d="M499.87,500v-0.02H500V316.6c0-89.71-19.31-158.81-124.19-158.81c-50.42,0-84.25,27.67-98.06,53.89h-1.46
		v-45.52h-99.44v333.81H280.4V334.69c0-43.52,8.25-85.6,62.14-85.6c53.11,0,53.9,49.67,53.9,88.39V500H499.87z M499.87,500"/>
	<rect x="8.25" y="166.19" class="st0" width="103.67" height="333.81"/>
	<path class="st0" d="M60.04,0C26.9,0,0,26.9,0,60.04c0,33.14,26.9,60.6,60.04,60.6c33.14,0,60.04-27.46,60.04-60.6
		C120.06,26.9,93.17,0,60.04,0L60.04,0z M60.04,0"/>
</g>
</svg>
