<?xml version="1.0" encoding="utf-8"?>
<!-- Generator: Adobe Illustrator 25.2.0, SVG Export Plug-In . SVG Version: 6.00 Build 0)  -->
<svg version="1.1" id="Layer_1" xmlns="http://www.w3.org/2000/svg" xmlns:xlink="http://www.w3.org/1999/xlink" x="0px" y="0px"
	 viewBox="0 0 500 500" style="enable-background:new 0 0 500 500;" xml:space="preserve">
<style type="text/css">
	.st0{fill:#FFFFFF;}
	.st1{stroke:#000000;stroke-width:10;stroke-miterlimit:10;}
</style>
<path class="st0" d="M500,94.97c-18.59,8.16-38.41,13.56-59.06,16.19c21.25-12.69,37.47-32.62,45.09-56.66
	c-19.81,11.81-41.69,20.16-65,24.81c-18.81-20.03-45.63-32.44-74.88-32.44c-56.75,0-102.44,46.06-102.44,102.53
	c0,8.13,0.69,15.94,2.38,23.38c-85.22-4.16-160.62-45-211.28-107.22c-8.84,15.34-14.03,32.91-14.03,51.81
	c0,35.5,18.28,66.97,45.53,85.19c-16.47-0.31-32.63-5.09-46.31-12.62c0,0.31,0,0.72,0,1.12c0,49.81,35.53,91.19,82.13,100.72
	c-8.34,2.28-17.44,3.38-26.88,3.38c-6.56,0-13.19-0.38-19.41-1.75c13.28,40.59,50.97,70.44,95.78,71.41
	c-34.88,27.28-79.16,43.72-127.09,43.72c-8.41,0-16.47-0.38-24.53-1.41c45.41,29.28,99.22,46,157.25,46
	C345.88,453.12,449,296.88,449,161.44c0-4.53-0.16-8.91-0.38-13.25C468.97,133.75,486.06,115.72,500,94.97z"/>
</svg>
