<svg id="Layer_1" data-name="Layer 1" xmlns="http://www.w3.org/2000/svg" viewBox="0 0 500 500"><defs><style>.cls-1{fill:#fff;}</style></defs><path class="cls-1" d="M498.47,373.09a76.19,76.19,0,0,1-76.38,64.41H79.25A78.76,78.76,0,0,1,0,360V196.73c0-13.68,8.82-18.91,21.51-12.41q106.44,55.68,212.71,111a30.82,30.82,0,0,0,31.44,0q105.78-55.5,211.83-110a23.89,23.89,0,0,1,6.59-2.51,11.92,11.92,0,0,1,15.68,12.41V336.49a219.4,219.4,0,0,1-1.28,36.6"/><path class="cls-1" d="M494.34,119.71a13.61,13.61,0,0,1-9,8.62L260,246a18.89,18.89,0,0,1-18.72,0L12.9,127.33a11.88,11.88,0,0,1-6.31-18.08A75.73,75.73,0,0,1,79.47,62.56h340a76.87,76.87,0,0,1,73.07,44.77,13.58,13.58,0,0,1,1.83,12.38"/></svg>