<?xml version="1.0" encoding="UTF-8"?>
<svg id="Layer_2" data-name="Layer 2" xmlns="http://www.w3.org/2000/svg" viewBox="0 0 43.34 50">
  <defs>
    <style>
      .cls-1 {
        fill: #fff;
        stroke-width: 0px;
      }
    </style>
  </defs>
  <g id="Layer_1-2" data-name="Layer 1">
    <path class="cls-1" d="m37.94,10.69c-.34-.17-.67-.37-.98-.57-.93-.61-1.77-1.33-2.53-2.15-1.89-2.16-2.59-4.35-2.85-5.88h.01c-.22-1.27-.13-2.09-.11-2.09h-8.59v33.2c0,.45,0,.89-.02,1.32,0,.05,0,.1,0,.16,0,.02,0,.05,0,.07v.02c-.18,2.42-1.56,4.59-3.67,5.79-1.08.62-2.31.94-3.55.94-4,0-7.24-3.26-7.24-7.29s3.24-7.29,7.24-7.29c.76,0,1.51.12,2.23.35v-8.74c-4.41-.57-8.87.73-12.28,3.6-1.48,1.29-2.72,2.82-3.68,4.53-.36.62-1.73,3.14-1.9,7.21-.1,2.31.59,4.71.92,5.7v.02c.21.58,1.02,2.57,2.33,4.25,1.06,1.35,2.31,2.53,3.72,3.51v-.02l.02.02c4.16,2.82,8.77,2.64,8.77,2.64.8-.03,3.47,0,6.51-1.44,3.37-1.59,5.28-3.97,5.28-3.97,1.22-1.42,2.2-3.04,2.88-4.78.78-2.04,1.04-4.49,1.04-5.47v-17.62c.1.06,1.49.98,1.49.98,0,0,2,1.28,5.12,2.12,2.24.59,5.25.72,5.25.72v-8.52c-1.06.11-3.2-.22-5.4-1.31Z"/>
  </g>
</svg>