<?xml version="1.0" encoding="utf-8"?>
<!-- Generator: Adobe Illustrator 25.2.0, SVG Export Plug-In . SVG Version: 6.00 Build 0)  -->
<svg version="1.1" id="Layer_1" xmlns="http://www.w3.org/2000/svg" xmlns:xlink="http://www.w3.org/1999/xlink" x="0px" y="0px"
	 viewBox="0 0 500 500" style="enable-background:new 0 0 500 500;" xml:space="preserve">
<style type="text/css">
	.st0{fill:#FFFFFF;}
	.st1{stroke:#000000;stroke-width:10;stroke-miterlimit:10;}
</style>
<path class="st0" d="M70.76,243.76c13.38,8.97,31.28,7.01,42.4-4.64l88.64-88.32c4.7-4.69,8.64-10.09,11.68-16l4.32-9.6v314.24
	c-0.61,16.35,10.81,30.69,26.88,33.76c17.45,2.83,33.88-9.02,36.71-26.46c0.3-1.83,0.43-3.68,0.41-5.54V125.68l3.2,6.88
	c3.18,6.72,7.51,12.84,12.8,18.08l88.48,88.48c11.12,11.65,29.02,13.61,42.4,4.64c14.26-10.44,17.35-30.46,6.91-44.72
	c-0.84-1.15-1.76-2.25-2.75-3.28l-160-160c-12.49-12.5-32.75-12.51-45.25-0.03c-0.01,0.01-0.02,0.02-0.03,0.03l-160,160
	c-12.48,12.51-12.45,32.78,0.06,45.25C68.61,242,69.66,242.92,70.76,243.76z"/>
</svg>
