<?xml version="1.0" encoding="UTF-8"?>
<svg id="Layer_2" data-name="Layer 2" xmlns="http://www.w3.org/2000/svg" viewBox="0 0 50 50">
  <defs>
    <style>
      .cls-1 {
        fill: #fff;
        stroke-width: 0px;
      }
    </style>
  </defs>
  <g id="Layer_1-2" data-name="Layer 1">
    <g>
      <path class="cls-1" d="m34.04,22.62c-2.03,0-3.15,1.06-3.45,3.07h6.88c-.15-2.14-1.57-3.07-3.43-3.07Z"/>
      <path class="cls-1" d="m17.07,18.77h-4.53v4.15h4.96c3.47,0,4.02-4.15-.43-4.15Z"/>
      <path class="cls-1" d="m17.23,27.08h-4.7v4.18h4.63c4.23,0,3.97-4.18.07-4.18Z"/>
      <path class="cls-1" d="m25,0C11.19,0,0,11.19,0,25s11.19,25,25,25,25-11.19,25-25S38.81,0,25,0Zm-7.66,35.37h-8.95V14.64h9.63c7.58.11,7.73,7.54,3.77,9.56,4.79,1.74,4.95,11.16-4.44,11.16Zm11.82-20.75h9.69v2.77h-9.69v-2.77Zm12.46,13.81h-11.12c.18,4.45,4.82,4.59,6.35,2.81h4.39c-.61,1.8-2.81,4.15-7.06,4.15s-7.7-2.39-7.7-7.86,3.22-8.2,7.57-8.2,6.87,2.47,7.44,6.13c.11.7.15,1.65.13,2.96Z"/>
    </g>
  </g>
</svg>