<?xml version="1.0" encoding="UTF-8"?>
<svg id="Layer_2" data-name="Layer 2" xmlns="http://www.w3.org/2000/svg" viewBox="0 0 260.54 126.67">
  <defs>
    <style>
      .cls-1 {
        fill: none;
        stroke: #fff;
        stroke-linecap: round;
        stroke-linejoin: round;
        stroke-width: 6px;
      }
    </style>
  </defs>
  <g id="AW">
    <g>
      <path class="cls-1" d="M99,123.67c.52-30.12,2.67-60.17,4.97-90.19.42-7.14,1.09-16.01-1.53-22.4-4.52-9.53-12.48,1.08-15.71,6.63-15.95,29.59-27.34,62.13-48.82,88.3-6.39,7.45-16.51,15.59-26.53,12.07-9.52-3.49-10.56-16.04-5.01-23.82,14.32-19.98,46.52-14.65,67.96-12.83,12.64,1.32,25.42,2.57,37.13-1.89,15.45-5.76,26.16-19.5,33.84-33.62,4.74-9.12,8.95-18.9,10.88-29.08,1.25-7.58.66-16.64-6.61-13.05-4.64,2.72-8.36,8.54-11.06,13.47-9.87,17.12-31.14,79.98-14.18,94.59,9.93,7.54,22.45-1.06,30.88-7.46,8.35-6.88,21.96-17.97,20.25-29.22-.88-4.41-6.27-5.28-10.23-2.73-3.43,1.96-6.44,6.11-7.58,10.88-2.04,7.92.93,16.88,7.34,21.95,7.82,6.46,19.26,6.19,28.06,1.78,10.87-5.27,19-15.08,27.14-24.36,6.44-7.48,12.84-15,19.26-22.48"/>
      <path class="cls-1" d="M198.69,67.78c5.78,14.21,13.04,23.84,18.17,29.66,9.41,10.67,14.55,11.8,16.08,12.08,12.35,2.22,23.02-9.75,24.6-11.57"/>
    </g>
  </g>
</svg>