<?xml version="1.0" encoding="UTF-8"?>
<svg id="Layer_2" data-name="Layer 2" xmlns="http://www.w3.org/2000/svg" viewBox="0 0 451.5 101.5">
  <defs>
    <style>
      .cls-1 {
        fill: none;
        stroke: #fff;
        stroke-miterlimit: 10;
        stroke-width: 1.5px;
      }

      .cls-2 {
        fill: #fff;
        stroke-width: 0px;
      }
    </style>
  </defs>
  <g id="Layer_1-2" data-name="Layer 1">
    <g>
      <rect class="cls-1" x=".75" y=".75" width="450" height="100" rx="50" ry="50"/>
      <g>
        <path class="cls-2" d="m51.66,64.22c-3.09,0-5.59-.37-7.48-1.12v-1.96c2.21.8,4.65,1.2,7.32,1.2,2.51,0,4.4-.39,5.68-1.16,1.28-.77,1.92-2.08,1.92-3.92,0-1.12-.25-2.03-.76-2.72-.51-.69-1.31-1.27-2.42-1.74-1.11-.47-2.59-.9-4.46-1.3-1.97-.45-3.54-.98-4.7-1.58-1.16-.6-1.99-1.34-2.48-2.22-.49-.88-.74-1.92-.74-3.12,0-2.08.75-3.75,2.26-5.02,1.51-1.27,3.83-1.9,6.98-1.9,1.44,0,2.79.11,4.04.32,1.25.21,2.21.43,2.88.64v1.96c-1.92-.67-4.08-1-6.48-1s-4.29.39-5.58,1.18c-1.29.79-1.94,2.06-1.94,3.82,0,.99.22,1.79.66,2.42.44.63,1.19,1.15,2.26,1.58s2.53.87,4.4,1.32c2.11.48,3.75,1.06,4.94,1.74,1.19.68,2.03,1.48,2.54,2.4.51.92.76,1.99.76,3.22,0,2.29-.81,4.03-2.44,5.2-1.63,1.17-4.01,1.76-7.16,1.76Z"/>
        <path class="cls-2" d="m84.54,63.82v-23.96h-8.88v-1.8h19.96v1.8h-8.88v23.96h-2.2Z"/>
        <path class="cls-2" d="m112.02,63.82v-25.76h16.84v1.8h-14.64v10.2h13.24v1.76h-13.24v10.24h14.64v1.76h-16.84Z"/>
        <path class="cls-2" d="m145.66,63.82v-25.76h10.24c2.83,0,4.9.74,6.22,2.22s1.98,3.42,1.98,5.82-.75,4.34-2.24,5.74c-1.49,1.4-3.53,2.1-6.12,2.1h-7.88v9.88h-2.2Zm2.2-11.64h7.68c2.11,0,3.69-.55,4.76-1.64,1.07-1.09,1.6-2.57,1.6-4.44,0-2-.51-3.54-1.54-4.62-1.03-1.08-2.57-1.62-4.62-1.62h-7.88v12.32Z"/>
        <path class="cls-2" d="m211.7,64.22c-2.48,0-4.5-.53-6.06-1.58-1.56-1.05-2.71-2.54-3.44-4.46-.73-1.92-1.1-4.17-1.1-6.76,0-2.88.33-5.35,1-7.4.67-2.05,1.77-3.63,3.32-4.72,1.55-1.09,3.64-1.64,6.28-1.64s4.73.55,6.26,1.64c1.53,1.09,2.63,2.67,3.3,4.72.67,2.05,1,4.52,1,7.4,0,2.59-.36,4.84-1.08,6.76-.72,1.92-1.86,3.41-3.42,4.46-1.56,1.05-3.58,1.58-6.06,1.58Zm0-1.88c2.05,0,3.69-.47,4.92-1.42,1.23-.95,2.11-2.24,2.66-3.88.55-1.64.82-3.51.82-5.62,0-2.53-.26-4.68-.78-6.44-.52-1.76-1.39-3.1-2.62-4.02s-2.89-1.38-5-1.38-3.81.46-5.04,1.38-2.1,2.26-2.62,4.02c-.52,1.76-.78,3.91-.78,6.44,0,2.11.27,3.98.82,5.62.55,1.64,1.44,2.93,2.68,3.88,1.24.95,2.89,1.42,4.94,1.42Z"/>
        <path class="cls-2" d="m238.66,63.82v-1.36c.67-1.73,1.68-3.32,3.04-4.76,1.36-1.44,2.77-2.79,4.24-4.04s2.62-2.33,3.46-3.24c.84-.91,1.45-1.79,1.82-2.66.37-.87.56-1.85.56-2.94,0-1.6-.47-2.87-1.42-3.82-.95-.95-2.54-1.42-4.78-1.42-.93,0-1.92.09-2.96.26-1.04.17-2.03.45-2.96.82v-2c.8-.29,1.76-.53,2.88-.72,1.12-.19,2.19-.28,3.2-.28,2.67,0,4.7.63,6.1,1.9,1.4,1.27,2.1,3.02,2.1,5.26,0,1.33-.24,2.51-.72,3.52-.48,1.01-1.15,1.97-2,2.88-.85.91-1.85,1.87-3,2.88-1.41,1.25-2.76,2.49-4.04,3.7-1.28,1.21-2.27,2.63-2.96,4.26h13v1.76h-15.56Z"/>
      </g>
      <g>
        <line class="cls-1" x1="310.58" y1="64.22" x2="329.27" y2="64.22"/>
        <rect class="cls-1" x="347.21" y="45.53" width="18.69" height="18.69"/>
        <g>
          <line class="cls-1" x1="383.85" y1="45.41" x2="402.66" y2="64.22"/>
          <line class="cls-1" x1="402.66" y1="45.41" x2="383.85" y2="64.22"/>
        </g>
      </g>
    </g>
  </g>
</svg>